<mxfile host="65bd71144e">
    <diagram id="lGyb1PcKsjm5rrPLonXb" name="Page-1">
        <mxGraphModel dx="1616" dy="613" grid="1" gridSize="10" guides="1" tooltips="1" connect="1" arrows="1" fold="1" page="1" pageScale="1" pageWidth="850" pageHeight="1100" math="0" shadow="0">
            <root>
                <mxCell id="0"/>
                <mxCell id="1" parent="0"/>
                <mxCell id="3" value="--" style="shape=image;imageAspect=0;aspect=fixed;verticalLabelPosition=bottom;verticalAlign=top;image=data:image/jpeg,/9j/4AAQSkZJRgABAQAAAQABAAD//gA+Q1JFQVRPUjogZ2QtanBlZyB2MS4wICh1c2luZyBJSkcgSlBFRyB2NjIpLCBkZWZhdWx0IHF1YWxpdHkK/9sAQwAIBgYHBgUIBwcHCQkICgwUDQwLCwwZEhMPFB0aHx4dGhwcICQuJyAiLCMcHCg3KSwwMTQ0NB8nOT04MjwuMzQy/9sAQwEJCQkMCwwYDQ0YMiEcITIyMjIyMjIyMjIyMjIyMjIyMjIyMjIyMjIyMjIyMjIyMjIyMjIyMjIyMjIyMjIyMjIy/8AAEQgCgAMgAwEiAAIRAQMRAf/EAB8AAAEFAQEBAQEBAAAAAAAAAAABAgMEBQYHCAkKC//EALUQAAIBAwMCBAMFBQQEAAABfQECAwAEEQUSITFBBhNRYQcicRQygZGhCCNCscEVUtHwJDNicoIJChYXGBkaJSYnKCkqNDU2Nzg5OkNERUZHSElKU1RVVldYWVpjZGVmZ2hpanN0dXZ3eHl6g4SFhoeIiYqSk5SVlpeYmZqio6Slpqeoqaqys7S1tre4ubrCw8TFxsfIycrS09TV1tfY2drh4uPk5ebn6Onq8fLz9PX29/j5+v/EAB8BAAMBAQEBAQEBAQEAAAAAAAABAgMEBQYHCAkKC//EALURAAIBAgQEAwQHBQQEAAECdwABAgMRBAUhMQYSQVEHYXETIjKBCBRCkaGxwQkjM1LwFWJy0QoWJDThJfEXGBkaJicoKSo1Njc4OTpDREVGR0hJSlNUVVZXWFlaY2RlZmdoaWpzdHV2d3h5eoKDhIWGh4iJipKTlJWWl5iZmqKjpKWmp6ipqrKztLW2t7i5usLDxMXGx8jJytLT1NXW19jZ2uLj5OXm5+jp6vLz9PX29/j5+v/aAAwDAQACEQMRAD8A7KopF4qRTTX9aoCkxwamjbiopPvU5M0ATnpTO9FFADuacCcUwGlzSAfmjNMzSg0wFJNLk0maKLAPUinHBWo+1LnigCFutTR9KrO2DipozxmmBPSU0HNKTQSLS03NGaBsfu9qcDUdPBoEOzRmmnNFMB+QaWowaXJqrCY8UmabmkzTSJbH7qTNJmimiWxwakzTTRmqsQ2OzRmmA0uapInmHZpymo80bwKqxNx0jVBv5qQB52woP4VYSzjiGZ3x/sjrT5RORWTe5woJq0li/wB6Q7B6saGvVj4t4wnuetVnmklOWYn61SSRN3Iv+ZZ267VUyN61VedWb5UCj2qEL6804ACp5rbFcl1qOBY0oTuSaQE+lPBqHNsuMIroJsWnAAdKTtS5wM1m7myHgikb7tIDmlY8UhlcfeqUVF/FUo4oshi0UUmfagBaQ0vPpSH3oEIQD2prID0FBYCm7x6j86abJYpQgcNTdzD3pwbPcUhOK1UpLqZShF7okiuFRvnQMPQ1aZrK5TG0xN69aziyHqwzTR/stmr5r7kciWiLT2EijcmHHqp/pVc7lOG7UqTSxH5WIPtVlLlJeJ0VvVu9N6k3aKwYNS5FWZLFZBut3De2cGqTJJG21wQanlXQrm7ktFRK2T1p/H94VNiri5xS5qMn3FKMY61LRSY8daVsYpgI9aVmGOtJoohJ+apkHFQnBNTJt96ljTHUlLxRxSLEopePT9aTj0/WkxoD0puKkIpOPQVLRQwg+lJ0HNPOPQUhGaVgGHpVObrV7oOlU52+bt+VADYqmHSoom7cVL+NA0IaSnHOOtNJPrQMQ57UZPpSZNGT6mkApJxSZozkdTTcH1osAbx60hcZ7U6igBA2TTWbHY0uaTmgAD+x/Kl3D3pKKQDi2OgzSbj3U/nTc0ZzSAkzgdaTdk1Hmk381QFlJxjrTi4IqhGjg8q//fNWQGI+6w/CgCKWTBpEuAPSo54nOcA/lVYxTA8IfzoA0PtI9qBcA1n+XN/dP504RyY6frQBf+0Cj7QtZxSbPAH4mgJN3UfnRYDS+0LSidazwkvcUvly9jj6imBo+cKXzh7VnrHN/eH5VKsUvfB+goFcurMD6VICCOtUlhkHQkD2qULIBy7fkKAuNlIB5pY5VHGagmVz/ETVUiQcc0Bc2BMppTIp71kASY6v/wB9U9S47t+dFhGiZAD1pyyDvVH5iO9N8v2/WnYDVDDuaN4rLCsD939akXcOgp2Fc0fMUfxD86BIv94fnVA7j1UUAH+4Pyp2E2aO5f7wpC6DqwH1rPy3pS7nA71VhXLhmj/56Ln0zTTMmfvCqodsUEt60JENl0SjFIbhR6/kao73pDKwrRIhsv8Anqf/ANVLuGM5rO89vel844qkiGy6ZNv8Jo84DqrVSVmZsDrV62snmO49B1J6CqS6k8wis0jYVTzVtLXyhvuPlGOFzyaPtMNmpEIDP3c1RlunmYnJPuapEt3LsuoMo2wxhF9m5qg1yzMScj8ajO41AyMTxRsHqXBOMcY/GlFw3+x+tZ+2QdKUK+aTRaNEXHrig3APQj8qzwklL5bnvUNFJl8XJB+8v/fNPFyfVf8Avms7yXPelEMnvUNFo0hdDHWlE4P8bfpWaIpKXy5KTNEzUSZf75p7SKV65rKSOTPFW44pCMGpsMHdd2fm/wC+qVZV9W/Oh7Rz0NR/ZJe1FgLInXHX86QyRk5IFVjby96b5EnvRYCzvi/uilEkY6VSdHHY1GPMBosJs0TIhpu9PQflVLEh7U5UkPY1SRLZcEij0oMq+tVAkmKPLc1dhNlnzF9aN61V2uKNr07GbLO8Y600lfWq+16aQ2apJktltZChBU4PrVxL1Zl23Chx6jqKxzv96Nzqc4qvUj0NaSz3DzIDvXGeOoqruKn5hUcF68T5DFTWh5tveL842SdmHQ0AtCnkGl3Ci5tJYj6Z6HHBqiXdTzUuJSkXwRjrS5GKoLI2al3tioaNFImJGamQgdxWdI7A0wXJHWpaKTNYsPWk3D1rJNwx6UhuHqWikzW3r60eagHWsczue1NM0hHFKxZtectJ5y1ieZL6GgSS+lIdzb85aXzk7GsTMvpShpQO/wCVKxRsGVCMA1SuGANRRGRj0NLNFIwqQCOdQam+0L61lmGUGk2y0rAabXK+1N+0p61nFZTTCstAzU+0J601p1PQ1lkSigCTPPFAXNIXAp32haorG7CpBbvQMs/aFo+0CohbPilFq9AEnnCk84Un2ZzThZmkAnnijzhS/YzS/ZSKLAR+cKXzRS/ZDSC0OetFgEaUdqiLc1KYSvam7M0AaoKnpTgVxVQZHQ0Zb1oAsNtPWoyq+lRZPrSc+ppgS7UpNqVHzSkE0CHELRtWmge9GKAuPAWnYX0qID3pcUBclAAqQbcVXGRTgD60CLGRS4U1X59aXJoAkKr7UzykPagFqTJzTsA4QLnoKU24HOBSAkVJuyKdgK2wA9KkRVNDDNNXg00gJvLWnBFpoORilAwapIljwielGxfSm5NHUUWELsX0pCi+gptFUkS2O8paQxijmkyaqxDEMY9BTGiX0FPxQeBk1aRm2VvJGelL5QJwBmnqjSuFUE5NaCxx2ADS4aU9F9KtKxDfYjgslhTzZztXsvc0k94XXy4xtj/uioJ53nYlj/8AWpgqrdyLjSpZsmnBAKKTJptDuSbRTSg60m40oJNKwrhsWlEYpOc0uT2qbFJh5Yp6ximg04VLRaY7ywDzTgi0wGnA1LRaZLsWl2rUQ5pRU2LuSqq9alUrVbNJk0rFJl3evpRuSqgJz1pc0rDuWspRhSelVs0oY0WFcWSMHrVUooNWy24VWcHNNITYBVp2BSKKWnYm4YFHy0gGKCDV2JbEIFN4pxU03bTSIbAgYppUUu2kPNUkS2IVFJ5YoK0uKdibkbRD0pEXb0NTMKYo5p2C6LdvebVEcq74/Q9qS5sldTJCSyfqKh2g0sUrwPlTj19DRYV9CFIlBwevrU4hGKtPDFcoXhwsndKqBih2tU8tyk+414A1R/ZF7irYpcVFjROxT+yr6UfZVq5ik21LRaZV+yr6UotV9BVrFGKhotMrG2X0pPsyj+GrNKTmk0WQLbpmnfZgOcCpKXPFSO5GsSA8ClKLijOTSkZpWKIWhX0zTPIWrBFJikBB5KelNMCn+EVPikxSArtbKewqs8KqcVonpVWUc0gGRgCpsjFRoOKfg+lA7i7hS7xTcH0oxQFx3me1O8welRkYpKAuSGSmmSm0UBcUyUCUelMI4pAOaBjmOarOMVbxxUEo4oAk5pTxTsUYoEMpR0p2KMUAJSU7FKBQIaATRj1p+KXbxQBHilxT8UYpgNAxSgUtOFADcUuMU/FIRmgAAoxShTS4p2AbipVXIpuMVLGaYELpUYFW5AMcVAF5qkJiqKdinbcUtNIkjxRTyM0gGBVWJbG0U+kxmrSIY2ilIxSGqSM2xp4poV5mCKCSTShTK21Rn29a0SF0+DC4M7Dn/ZrS1jNu5H+706PsZyP++az3dpHLMck9aJGZ2LHPPrSDinYlsTFKBilop2JbCmnrTqTFOwrhijGKUKWOAan+wTlN3lsR9KT03KRDS4pCjocEUo59qVgQAU6kpaVi7ijrTqaKcKlotMUdKWiipZSYUUtFKw7hS5pKUAetKxVxaUDmjvSjrRYGx46VG4GaeMimE5NNIVxqilxTlFLTsQxmKQinHrSEVSRLYykxTqSqSsS2IaZildsH3pUgllGQCQPQVSRLY3FGKGR4zgqR9aUcinYQ1hTB1qZxxUYHNKxI4UuMjpSgU7FIpEas0bhgcYq88cV9HuTCzjqvrVTGetC5icMpwR3otdjG/NGSrDBB6GpAausiaihcfLOByPWqKgo5Vqlq5SdtCSilAyKUCosaJiUYp2MUVFi0xmKQjNSUmKTLTI9tG01LgUHpUFkW3HNFSYpMVI0MxTTxUpFM25pFDCOKTFPxSigCMrxVeVeauYqCYc1IECDinYpVpxFADMUU6j8aGA3GaNtOxR+OKQDCBRin8DuKMj1FADNgpAvNO3L60m5R3oHcXGKrT+1WM5qKRcj3oBD8gGl3LT3tmHOKrujDpQIl3LRkVAqMTUwhYigB2RSjFKIGHal8oimgEFKBzSqhzUixmgBmM07ZkVKI6f5ZxQBX2Yo21Y8s0eX7UAQbaNtWPLpfKqkBBgUdjVkQE+lJ5FMCucYpy1P9mpy2+2glkJHFQ5CmrrQ5Wqr2xzmqEN8wdKC4ppt2PSm/Z3qkS2P8wGjfiofJcGlEbmrSIbJPMGaN61GYWppgkq7ENkhdaTJkO1ai8ls4Na1nAltD9plHT7g9TVpaXMm9bCqg0+3DsAZnHA9BWczmVyWOc9SaddSyXEpbOSajSNhVWJuI4ApuRipWRj2qMwtTJDcKMimmI03y2FUSSZFAG44XvUYD5x1rU06y8xtzj5F5Y/0pN2Q4q7JLG0WKP7RPwg+6D3NRzapM0mVbavZcUmo3hkbC8IvCgVl/M2TUqN9WU5WVkbkV1BeL5dygDHo49ap3lk9vJnqp6H1qom5ccZFbFpcLcRG2nOQfuk+tK3LsNPm3MsEUuRUt1avbzYYY9/WowhYVTD1EyKUEUeUe1L5JqWrlJi7hQGFJ5TUeU1TYu47cPWjcPWozE1NZGApcoXJN4Hel8wY61TYMKBv96OUfMXPMHrT1kB781Rw9Kgk3d6OULmmGyKgkYA0ibiKa8RamkK4n2gCj7SKiNoxpPsre9Owrk5uBSG4FQ/ZWo+zNTSIuSCcUebuOFFR/Z2zitPTrASZeTiNfvE96ei1YtXohtnZmYmSQ4jHUmrjatFAAkEQ2jpmq99eiRfKhG2IdAO9ZbRyMcmly83xD5uV6G+ZItUhK7Qkq8isZ1MTkEd+aW2kkgcNnBHSta6iW9tftEY+YcOoppKPoJvm9TIJGKaSKds6jNRtG1WZjt4HSnBwai8pvSlELUmholDClyD1pqwtThCe1SykEchikDKcEdK0JI0vojNGMSr95fWsuSNlqayumglBHUdj3oYxA+w4aniVc1bvoFnhFxEPlP3gOxrIMbg4NS1fUpPoXfMX1o8wDvVRY2p4jaoaNFIsbxSiRah8lqPIbFQ0XcmMi00yrmo/Iamtbv2qbGiZJ5y96POSqxt39DSG3k96loos+cmaXzUrPkikUVEryA4INTYaNTzFo8xarQozetWFt+5pFDlcVDMTVlIsdae0CsKQGOXKmk89q03s0NRGxUGkBnG4NNNwa0fsS+lJ9hQ9qQGcbo5ppuWrQNknpSfYk9KAKH2hqTzmNaItUHanC1T0FIDLMrmhXbNahtVA6UC2T0oAqIzd6bK5xWgLcY4pr2wPWgC0zqwqq65NSIDilZeKAIAAtTI4x1qBgc0qrxTAseaKb5gzUZWkC+1AEocUvmCowtL5dOwEqSDNS+aBVcLTlXmiwE3mg0CTNR7aVVppAS7simlyKcq8UyRKYE8c30p5k+lVEGTU+3igTJBJmjfTNmKNtOxI/fTSwzSbaCuBmqSEwytJ8tJijFXYzbGkA0YFLtpCtWiGxOCaaxUDNO202ONppQq9zVpXIkx9pbedLufhF5Y0Xs/nyALwg4UVZvCttELZD05Y+pqiq85NXvqZPTQFCg9KdxmggYpMUILi8UHFJg0m2qSJAhTRsXFG2hjxgdaYrCRw+bKFReT0rRvZVtbcWqHtljTtNjWGOS6foowPrWfMzTyljzk8mp3l6F7L1KhBY5IpyIKkK0Ac1RAm0UAbDkZqTbS7eKB+RpQsNRtvJkOZV5U1mMDC5Vhgjg0+F2glDqeRWjdwpeW4uoh82PnFZ7O3Rl3uvMzlIqSo4+Dg1JkU2rAgoOKbvFIZM9BRa47juKa6jFAZielO8iaT7qsfwo5Q5isYwTmnCIVN9jm/uP+VKLSf+4/5UWHzDBEuKcI1FO+yz/wDPN/yo+yz/ANx/yosLmBUFOwBTDDOnJVh+FNLNnpRyhzEm0GjC0wPjqKduU96VhXDimttC5p3B6UwjcwA5ppCuLa27XU4UZx39hVu/uFVRbw8Iowcd6sPt02y2j/XyfpWWAWbdQvedweisIkfGSOaXaM0+jFWSRsgNT2NybaX5vuHgimYpjjvSaurBd7li/tfJkEkfMb8g1WUBq1LHbeWzWrnkDKms6SMwSMjDkHBqYvoypLr0ECinDAopKpkIdwKUEZpo604VJSEdQRVZ4hnIq0RTGpDuS2Fz5TmOTlG4Ipl7am3nIA+U8g1DjDZrUt3F7bfZ3++o+Q03pqPXYyxjFPU+1IymNyp4p9TJFp3DcKcHHpSYFG2s2aJj949KXKntTQtLis2WmBCk0mxTS4paTRomRSxLt6VnyRANkCtVhkVUmjz0qRkcLYHSrQfjpVWIVaC8UmWhu+jeaftpCvFKwDBIaC+acy00rSAYXNIZCKcVpCvFKwEZcmjJp22kKkUAJkik3Gl20baQBvPpSZNLijFADdxFIZDTiKYRxSsBNGtPdOKSPpUzDinYCgy4NOQcU51w1KmMUAN20bTU22jbTAiC04LT8UYpgJtpwWnAZp23FADAKeFpdtPAxTAEQ0kqcVIDimSHIoAgUYNTjmolHNTqKdiWwo60uKCKpITYnSkxS96XFUkQ2NxSFadRmqRDGYpMU8rTSMVokZ3InOBir1mgt7drlgM9F+tVIIjPOEA6mrN7IC4hThEGAPU1pboZt9SmxaVyzdc04dKANopcUE2GYoxT9tGKYDMUYp2KMVRIzFIiF5AB17U5hgVe0mENcb2+6gyaTdlcaV9CTUMW9pFbDr1as5VyMmp72Y3NyzH1wPpTAmAKIq0Ryab0IGXFJipmFNUDNMQgWlAqTAowKVwsRlcirGn3Jglw/KNw1R8U1l7ilo1ZjWmxdu9LcSb4BujPIxTE0mZhuchB/tGmpf3McQjV8AVE0k0vLux+ppLn6sp2exbNlaQjMlxk+i0zfYJysTOfc1V8sd2p22MDnmi3dk/ItHUY0H7u2QUp1iXbhUVfwzVUBO1PCjHQUuWJV33Htqlyy/eA+gqP+0Lj/nofypGUdhTAOelP3ewavdkn9oXP99qemp3Kj72fqKYF4pdtFo9g17lhdYmHDBW/Ck/tJH/1lshqvsGOlIUB7UrR7A3LuTCSxZiWhZc+hzThZ2kw/dz4Powqt5I9KQxHPBp+jJJ30yZf9WQ4/wBk1as9N8g+fc4AXkCs8GaM/KxH0NK9xPKuyRmYehNJqTW5SsuglzKbi4ZscE9KaE4pVTHPenZAq/JEPuN20FTT8ZpDxRcQzbSY4NPIz2oxRcBkTtBKrL1ByKuapGJNlwv3ZBz9aqOOlaMA+1aZJEfvJyKmWlmUtU0ZajIHNLtoUYcin9KpiEpyikpc0gHkcVEwqUdKQrSGQkcUQu0MgZeoOacRzQy8UXBly/iWWJblBw3Uehqinp3q/p0iyBreT7rjj2NU5ozDOyHsaX90afUKKXFKFrM1QgpwFG2nBcVLNExMUbaeBS4qGi0MI4qCZeOtWwuRUMqGpZZTRfmq0BxTAuDnFSr0qWUhuBSU/FJSGRFeaDTyKaaAGgUhHNOoxSAjI5pCKkIB70mKAIitLipMCkKj1FKwDCKYakJxTTg9KQDaQjNLmm5HrQAkM2auBtwqCK3APNXUVQOaAM6dWGcCqokdPWttokaomtENNAZf2hveg3DVoGxU9KabBTTAofaT6mj7UfU1cbTx2qM2GD0pgQrdn3pftbe9TrYCpBpymgCuLwil+2mpzpw9aBpo96AGLdEnrT2myKlTTwp61OLIbetNBczhOQalW6FWG08ZpDpwxnNMkYLoGg3IpTYkd6jazPY1RLH/AGoUfagTVdrdh3oW3OetWkZssfaRSG4pq2xNSC2x2q0iGxnnZpfMJ4qVbcURw7pgqjnOKuKRlJuxctE+zWrzt1PyrWczkuTWlqDgFLdOiD9aqLCMc9aaelyUraEO/NG81P5IpPJFNCZB5hpPNqcwjFNNvkVWgEXnCjzad9nxSiDHU0EkYYscVrIpttMLdGkPH0qjbwb5wg7nFX9VYCRYVPEYwfrUy3SKWzZlqcsTUozTkiGBUoUAU2Fis2fSq7Eqa0SoxUbRKxoTBIo+Y1IZGHrV7yFprQL6UXCxQMrD1oE7D1q6bcHtTTbL6UXHYq+ex5o85j61aFuPSni3HoaVx2Kfmv70eZIfWr3kil8kUXCxTjZz1zVyMHAqRIlHap1UY6Uh2K5XNRPlT0q/tWmmINSCxRDtjpQZSD0q6YRSfZ1NA7FHzSKPP96tSWwqsbYZpiYnnml8404W/vTvKxxQKxH5p9aQucVIIhmneWD1p3BlfzGpDK1WTEKQxA9KETYr+cRSecakMHFIbf3phYZ5x9aQ3BHeni3o+zCi4rERuDjBNaekTDz1Gflbg1nNaipLXMMgx2OaJK6sNaE2oRm3mcDoD+lUfPNberReYqSjo61krCpWiLukwkrMiM59TSCck1P9nFAtxmqEh0TE1YwSKjRQtTBhjrUsYwg0hBqTIoyKkLkK5jYEcHqKvXyie3juFHJGG+tVmAZetXLACeGW3buMj605aWl2H1sZqEkVKAcUzBjlKnj1qZcetTJFRYig08KTQMU8MBWbNUxAppwXNJvp4kFQaIbtIqORTjip/MB7UhINQykyiysabh/etAKuaNqk0i7mb8/vTCzA85rUMaGoXiWpGUN5NHzGrBjC9aFCigZXw1J83vVz5aNqmgCntb0o2sO1XMJ6UhC0AUyGx0ph3VdIFNKrSApMGqIlx2rQKCmmMGgDPLP3zUZdhWiYRio2hHpUgT809WYUm3FKKYC72pd7UlLg0IBQxFLvptLjFMCVWzxQwGKYOKMk0LcAzineYMdKTFKEyKYAH9qkD8VHtxSgcUAP30oemheacBigli76cZBim4pMc1SEOLjFRFgakwMVXZcGrREiRo1xkVGFwakU8YpKtEMMGkORT6RqpEETMQMirWnIAzTt0jGaqP2FX5D5GmIgODIcmr6W7mLepRdzJKW980oJpqDuakqmFrIQ5oyaWikITmnA8dKSl7UAIajc4WnE0w8mqQjQ0mMeY8zAYRapSuZZ2fuTmtFMW+jlh96Q1mxjJqY6tyH2Q7kU4bsUuKWgY3BowadRQNCAGkwadijFAxpBpNpp+KWkMbtpadtNGKAG7aAKdjmlxRcBvNLzS4o2ikOwmTRmlxRikFgBNKC2aAKO9AWHE5HNRHrUoFRuKaBoaKDnNKKXFMQzB9aTGO9SYxSEUANGfWkwadiigQ0rSbadmjrTENxRSngUimmJiMvFQkYcGp26VXbrVIk2H/e6Mh7xtispRya0dPPmW08PqMgVn9HIIqYaNoG9mLg0YNGaM1ZIUUUUhiYPrSgGijNIYEZ4qS2la2nV17VHmkY4INLyH0LepxjzvNX7rjdVZeRmrjjztMVupQ4NUUOBj0qUtLdhrck4zT+1R9TTwalmqYcZpaTHNLWbNELmk5NFLSZpEQE460EmikJrMpD9xpGbpSrSMKkoibBGKaBSkGnBeKAG4o6d6U8U0jNAxDTTS0EUAN60YpaQ0gEI4puKeelJ3zQA0g1GRUxqNxxSAmxRTPNFOEinvQAtO5pm9c07zFpgLijBNG9fWjevrQA/bRtNN8wUokFADqcKbvWgOtMBxpQOKb5gpysp70AOA5pab5gxSeYKZLJQMmjGKaJB60u4HvTQmKBmo3XFTLjNOMYK1ZnIpg4pw6U548d6jLBcc1oiCSmmkMgpPMXHWmiBqr5kwA55xVvUuJVjHRVxTNLVXu1Zug5qK8n8y6ZuxNafa9DJjQOMU4Co1dafvX1oC47FGKb5g9aPMHrTEx+KDzTPMHrQHFFgGspA4qNcl8VMzjFFqnm3Kr6timnYRc1D93b28PoucVTjFT6pJuuiOy8CqglA4qY/CU92T0VEJhR5woAlpahEwpfOFA0S0uKh84ZpfOFA7kpHFNBBPWmGZSMd6jHIyPWmo3ByS3LDSBaQOG5qHJ/iYGjJU8c0ODIVRXsWD2NOqASg9etO82psaIloqEzjFJ54qSyeiq5uBnrSi5WgCelAzVc3K9qBcjNAFsDio2FRi4ppuBTQmSYwaRnC1GbgdKZlmbPQVUI3IlJR3JlcOOKM+9RHcv3cYNMZtpGetPlZKmmWaKh+0AUeeKRTZNSd6i88UnnCnYkkamDrTWmFNEozTE2THkVC4yaeZOKhd+apEMvaS+26UE8Hg1Hex+VcuuOhqvbS7XB9DmtbVoh+7nA4deah6TXmUtY+hmZ5xS1CJABjvS+b61pZkMkJxRmovNFHmD1osFyYc0VEJQO9L5opWHck70jDIpglWneYpFJopMv6ewkSWE/xLxVEja5H4VLYy7LlG98Gl1BBFdN6ZyKnqxoYKcOtQiZTS+cKzaNET0VD560G4WpZqialqv8AaVo+0rUMtFikIqD7UtIbtSOKgtFocUMcCqq3QPcVL5oYdalljSacpzVaSTHSmi5IpAWjTarm6pjXWKBlukNVPtR9qPtdAFnrS4qr9qo+1UAWG5NIahNyKT7RmkBPTH6VGJ/WhnJFAD5IHHWodrA1rybTVZlGelICkFY9qkWJ6vRKvpVgBAOgouBl+Q9OEEma1PkHYUoZAegpgZvkP3Bo8l61Ny+go3p6CgDK8l6QxSAdK1SV9BTcL14pgZeyQdRSYcVq4T0FHlo3YUAZJ30g3ZrTeFQOgqHYuelNEsqAuDTwz4q8I0I6UeUue1UiWytGX3e1XUY4oCKO1OG0VdiGQuGNV3jar+RSEA9hVozZltG4NRsGA61qlF7ioJ0UL0q0QyawXy7eaU9lwDWZNln4rTRyumMMfeaqqICMmq2bZkijh/ej95WhsX0FBRT6Ux2M/DmlAer3lilCAdqLgU1Rz1qZY2qYADtTgRRcRCykCr+kQZlMrfdQfrVOQ8AVqWuIdImc8bqmo/d9RxSvqZNwTNOx9Tmo/Japosb8mp8irfYlFPympjRtV84qNhUjKQjYU4Rse9WcCl4oGmQCFjThA2KnBpdwoC5W2Y4YUbT0XrT5Gy9LCRyTV30Jcfe8hnkN6mjynXkH8KsbxRvFTdo0stioV3DPelEbEZFPYYY+lSw/dpy1VyY6OxVaNivFRmNs9a0CoxUewVBrcpeW1AjerwTNO8selAXKHltSeS+6tDYPSnBQKAuUkhelaJl6mr4CiobjkcULcTZWwEXgfNTSJW71PGu5844qxtX0q2zOMerM/bKpzmpQBIOetWiqntVd12vkdKcZdxSjpdEDrnhFqPy39auRrweKdtHpSuBQET+tL5b+tXsD0oIHpVITKBjc96URN61cwBSEgdqZDZAENRvGatFhTWORVWIcitEGR89u9bpl8/ScMfmjasc4xWppwEsE0fOSvH1rOqtL9jSm29DFkU7ztpmGHWrbqQxBFRMD6VqmZu9yHBpQhIp9OHFBNxnlml8s1IppwxSZaZCUNCxtVgUoOKhlDbcbGOTV7VFDBGH8S5qkW+bgVfuAZLCFyPape6L7mR5T9qURvVhMFRUgAqWaIoGJzTSjitLaKY6jHSs5GsTOKPT1ikNWgBnoKnjA9qhmiKBtpPWm/ZnzWvtFJtHtWbNEZqWrA1aSBvWrQ2+lLkdqljuVJLfcKrmz561olqZSGUfsRI601rE+taG7FBcUDM37CfWkNifWtLd7Uhb2oAzhZH1pfsR9av7hTgwxQBnfZT604WZ9avZHpSGQY44qbgUxaEVILbjrU/mAe9N84UXAXNISCKcy8ZFQPkdKQEikg4qUMcdaqRsc81aAyKAFJJo59aKdiqQDST60uWpcYpwFACDJpw6daXAoAoQCYPrT0zQBTlHNMBSvFVnXDVdxxVeQc00Sxq5xUqjimIMipMVSIkNPFIeaeRxTKtEjTxS5NBpKtGbAnioZjnipT061DL1FXDczlsyxLxYRAdCSagT7tT3Tf6PAvbbmoE6VXQzQUuKXFFAwooooAQjim/jTz0ph60CGMPmFXpmZNNjjPRjmqJ++K0L3/jwt/pTe6DuZ8fc1ICajjHy08daYmPBzTSeKUUhosAynZ4qLcd3AyKdvI7UKIDwaWot/qKUPRyhceQDSjA6VHvFODZpFXY8c0YFIDijNISYpAI5pVYDgU3rTQMGiw7k+RioycUo6VG9Fh3JFNP3VAD70u8dM0WFcnoxUYb3o3mnYdx+aQ8imbqXdSsFwXjpS5NNLUZp2FzC5oPPWm0ZppC5h1ITimlsUwyD1p2J1H5ppNM30bvamidRSaQnNIeabk1aM3ICaTJJwBSYLHArYstOQQ+fcHbGOQPWpnUUFqOEHNmdFaSzMAiFvpW/p1tHYIWnkUO3b0rPutUCqY7dQijuOprLkuXc8nP1NZOM6qs9EbRnCk9NToLpNMkkLmTBPXbUH2TT5BhLjB96w/MY96BIQeKpUJJWUiXXi3sac+kSAFo8SL6rWa8LISDn8qnt7+SFxhyPxrWAi1OLjCzgfnQ5Sh8Ww7Rn8JgginZGKdPA0LlSuMdqjrZNSRi1yjwaUCmilzUspMDwRWjlm0z2VqzTWlE4OmyL75rOXQ1RQTgYqUVEhyT9akBqZGkR4FI68UA8U/tWcjSJWxzUqCmMcGpF6VmzVElFFFSyxKKTPNLmoZYGk3etIWpppAhxIpvFJSUDFzQTQKSkAgpaMUmcUAITScnrS0lSAhpuKcaSgC4BxTZIgRmkjkyuDQ0lAFYx7WqePpVaWQg5zTVuSKAL+2nAYql9pNL55pgXMZpcVT88jvS+eaYFwdaeBVJZznFSecTQBaA9qUVUExHenLMaYF4dKrydaVJD60yVsc0yWPSn1VE23g07z885qkSyemHg1EbgDvUbXGatGbJzSVX8+l8+qRDJjUMn3hSGbjqKY0m5hWkNzOWzLl3/qYP8AcqFfuVLdn9zDn+5VUSfLVdDNdSfNFQeZR5hpDJ6M1B5ho8w0wJabTDKfam+d70CFP3xWhe/8eMH0rODh3FaN7/x4wfSjqg7lBPu06oVlA4p3miqEyYGlNRrJmlZx600IaVGcg9aTY3rTS+Kb5hp3Akw/tR83cA1H5h70hmxTuw0JMqeoo47MRUfmikLjsMUBtsTBiOtODg9aqiUg0/zQeopNINSzkdqM1WWU4pfMPrSaAtdaidscetNEnFRu+TTsCZahtZp/uKWq0NGuNmdi59Kq2WoSWrZQ8HqtbzaxGLXzR94/w1jUlUi7RWhrTUJK82YEtvLbnDgqfemq+eKL29kuZSztz29qreaR0rVJtamLdti1uozVTzjR5xp8orlrdQXGOearrIGPzGnebGvQZp2HqS7yego5PBbFQmc44xTfMOc0WFcn+Xuc0blHQVAZPSk8ymkxORP5h7ACkzzyar+aaaZjTSJcuhZNNJqDzGNN3neAaqyItqbOl2ouJgG+6PmNLql95j7F4jXgCrGlHZZzuOuKwrtzvHvWEVzVG30N5txp6dRC2ep5ozUTK6qCRxTAxJ4rrRxtSvqWiRjrSZqIhkALA80uc0XQmmhST1qzaXLxSKytgiqhNIr4alJJqzLhJxeh0l/su7JLpVG4cNWHjaxBra0yQSWk0TcgjNYtwdr1y0vdvE6qvvJSFzilzVfzaUTHFasyiywelXov+PGX6isoSZOK1If+PKb6is5GqKafeNSZGKqGQq5GaPONRI0iXtw9aGfiqYnORUqksM1nI2iI8nNSRPVSZWBzUYlZTxUM1RqbuaQtVETNTvOaoZZc3Uu6qPnmgTk1DLRdJGKbuqr5zGjexpDLJYCkDjFV9zGmZcUAXNwNG6qgdxSmRqQFgvRuqmZGpDMwpAXN1LkVRM5FNN1ikBfNJWebw+tJ9pY96AN1YQBilNvmmCXFSrMMUgIHs81H9hq55wpPNFO4FZbIVKtmMU7zu+KUT+lADTZj0pwsgRThNmlE3HSgBos1zUgsxSCU5p4mHequAw2eKUWhyKkEwNSLMtADFtSKGtiRipxNSNMKZLKbWec1EbNhV7zhQJVPWqTEZhtWHrUbW7CtcupqvLgirM2Z3kkmnC396lY45oWSrRmyL7PxTXiMbCrHm8VBI+SAPWtIbmctizdkG3hI6barLESBVmYf6BEfc1WV8Cq6GaH+TR5ApPMFHm0hjvJFJ5PuKPNpPMNMLDGiOKrmM5q3uzTWx1oAhiUh61b0/wChQfSs3I3itK85sYPpT6oXcyxESM0vlGpEIC0/cPSi4hiRkGl2EHpTi9J5lFwYFG9qTY/tR5hpDIRT5mKwFSOqg03A7pS+YfSlD5o5mFkR7U+lHlr2NSkjHSmEKe1VzDsRGKlCA96fx60ikKaLgHk+9KIvWnF+TUZkPbkUEkoQAdaYVyaaZKbvp2JYrIAOKkbPle9RqS554Ap3mqx20xDBGCKDHQWKdRxS7wRVIl3RGU5pfLoySelKGOcGkPWwCKlCLnpRupQe9FhxkuovlHstL5JpNzeppfmxSuF0Ah+lL5KeopvzUtAcwuyIdTQREvOM1H0FFUgchxlUDCoKgb5myetPIph4ppEObN/R2DLLF3ZeKyLuLE20jkHBqXTrryZlbPTgj2q5q0I8/wA1PuyDNc/w1PU3+KHoUJk3wAVWt49svI6VpWzRtE6ScZGQfeqbYSYe/WtVLoZcvUW5yVApqxfusnrUkwBjzmiORWXBp3DpcqEU0KM5qSbAfim1re6MHFqRs6T92T/drMuRl609JPEn+5WbcH5q5o/Gzql8KKxjpRFTxTh1rVmURmzDCtaJSNOlf1IrLz8wrSEhXSyB3asZG8TO2BnJp6xAjpTEbOT71Jvx0pSZcRRAuanRABUG8+lKJD3rJm0SwyKw5qI2y56Cm7z2pfMNZM1Q4Wy1ILdcdKh3kU9ZTUMtA9quOKh+zhasFyaY7YqS0NWJR2qQRLUWTRuNAyfYo9KNiVAGJ70oJxSAl8tfakMS+1R8igEnrSAcYFPYVG9stPJI6UZNICq9tmoXtc9qvEHNG3NFwM02mO1PS24q264qMdaLgX80U3NLmkAtKKQHmgtzQAu2jApV5oI5oAcAKXA9aFpcUXAMUvSg9KXrVAJSigClpgLzRSZ6Ud6BMDTScU6mEVSJGGQ56mnBiw5phTJp4GBV3M2QyEU3IpZOtMWtEQxSahfoPrUxGaikX5apENF0ZbTPZWqkvSrlp+9sp4u4GRVLPzVpfcyiSZFFNpQc0h2FpaBRRcYoAxQRgUq0N0ppiIM4cVoTZNjCe2cVnt8pBrWiVZtHf1U5FDdkmLluzNj+7T6iQ8mpM0XGLmmnrSM/rTN4J4zQg9R5pDTDk98U0kepNVYm6HblFG/PQU0ZPRaXax74osluGvRCktjoKT5vWjZnqaQxjuaOaIWkIeP4uaVGz1o2gUEelFwYuaZuKnkZFLmkYgiqID5W6HFB2L1Oaj4ph/KqRLkkSmQsNqjinxW8kjgKCT7VBG2HGa6SC+gtrFH2jd0x3qaknFaIumoyeuhkTL5R2SDkdahHlnkGrN9Ol3IZEXGRWcOtVC7WpnPliWBIqfdHNMLEtmmZoBzV2M+e+hIDTlyxxmowacPrSY426kvlt60m1qZk+tKCw/iqDS6Y4MQOaCwxRvb60u5T94YoG4obRmnbVbocUhjI75ppk8gwn0puacVb0ppBHUVVyHBjVbY4NdBZPFe2/wBmlPI+6a55hWhpkUjXCY7HOfSs6yTjc1otp2Lt5pos4S+/dk9KxHyXOfWtrWLwSP5anKr/ADrE60UW3H3h11FSaiLvbbtzxTefXFLRW6scrbEozyKDSAZYUN6BG7krm7pYAhmY9lxWROfnrVgbydLkbu5wKx2bc59q5ofE2dc9IpC0ZpuaM1o2ZJDwRuFaE7BNOiXGCSTWbGcuau6i4URoOirWbeqNlsUl/rUmaiU8U/NQ2aIeD7U8EDtUOcUBs1m2axRNkUZqPNGazZqkScEUobFR5o3Vm2WiffTHam5pjmkWOVuafmoQTmn0gH0UgOaWkAo4FOpuc0tIANLRmlBzRcBMUDrTqSkAx6gI5qd+ahzzQBZNA+tZwuGpwuGoKNEfWgkZqiJ2NP8ANJoEy6pxT8/Ss7zH60CZqBGmDilyDWcJ2pftDigDQzSis/z39KBO/pQBo5o/GqH2hqPtDVQF/NGaofajR9qNNCaL+aaTVMXRPeg3Jpkst5FLmqInJNWY5CRVEMSQVGMDvTpWNVXYitEQycsMdaY3KmoCxphkarRmzS0t8XQU9GGKrXC+XOy9ME1DbTNHMrehzVnU8tLvH8QBrTqZbEYYHvS7h61R800ea1SWXt49acHFZ/mNSiR+lAGircUpPFU42NWBkrzRcLEchzWnpc6sj279HHFZEm4dBRbzmNwc4I5FPdWBq2pYkUwzMrdjT8j1pt7crcN5gUA49aoeewHtRIUexccc5HNIMnviqZnbtTftDetClYpwTL2wdzmlyo9KoC5Jo81jSuPlL24etO3L61nF3oEr5xQFjQLD1ppcetUjI1JvY0XBouFh60nmD1qnuakJarTM2i5vU96buHrVTc9M3tVIzZbLj1qMuPWqxdhUZdq0RjIueYAwINWgxkjwuTWRvatPTbry5UJ5wefpVSVtRU3fQt2trK8Ltg7VGcmqUh2PzXZIyPF8gAUiuU1K3MU7L6ciuejW55WZ016HLG6K+6gNiolDHjvUqwMcZ4FdTaRxxg2ODCnhxTlhQAjPNVXyrYqLmjjZFkSLmneYPWqeTRlj2qQRdDD1pdy1Syw7UuWpXNEi3laM/wC1VUbs9KcM+9JsqxZ34701mLAiokRmPFalrp7Y3zHy4+5PWk5JbjUW9Crb27zPtCkn27VpTzRWNuYYTmU/eYdqhnv44k8u1Xavdu5rImldzU2ctx3UNiR5N7E9qbuFV97UbmrZMwauWMj1pGIx1qDcaQkmnzE8pNuBp8XMlVSWrS02LzJkB7nNKUrK44Ruy9e/urKGLvjJrHDVo6vOHnKr0XgVkYNZ09jWra5Puo3CoeRR81UyUi7aIHuFHqaXUJA9w2OmcVJp4CF5D0Rc1nzMXkzWdzVIk3DFODgCquGNBVsVDZpFFoyD1pN49aqHd6U3cRUM1Re3jHWmmYD0qjvY0fM1Zs0RdFwKeJkPU81mbXBzTgXz0rM0RpiUHoaY8g9agjDkdKV42xSKJBMvepBMtZ7o9MPmCkBqeetHnr61lbnHX9TSNI6jJpNpFKEnsjZE6+tPEyHvWFHMz8oc/Spt8uKV77BKLi7M2PNX1oEi+tZStIetSqWoJNLzl9aXzFI61Q2uRTlV6Ciy74HFVWmwasrCXHNRSWhoAka2X0FNEC1ZY8ZqsSQaAJ44F9BUvkoB0qukhxildzjrQBOIlpTCpqsrtnrUysT3oAf9nWlFulKCT3pRkd6AEMC+1H2dadzRk4oEM+zrS/Zx60pJHelDGhCIZLcCofI561bfkCoj1pgR/Z6PIxUwNBOaaYmRiELUqYHemk0wmtCHsSORUZCmozz3ppPvVoyY8otRmNRSZpua0IGOoUgir0o86wSQdU4NUZORV3T2EkEsDHlhxVJ6GbV3YoKqntzTvLWkIKSYNLQ9GNajtgpVUU0U4GkykSgKOlSAgdag/Gj8aVx2JWCtUfkqaUZxSg8VNx2GeQO/NKYFpwPNLQ2VykTW6kVA8Cg1dqGQUrgkV1hAqURCm808c0XHYUqCOab5aUpFIRTuFh2xR0prKtJSEU7ktBtFG0Uw5pOfWqTIcRzKtREClJJphrSLMpIYwGKiYDPSpGOBzUeGY8CtUzCUbicetPibEgpRFjqakDIlVzEKFmdNpt1mxVpDgLVfUbmznUYbLjuBWC927oEUkgdBTVSR+prBUkpcx1us3DkZaMyJwKaZ3foMUwKij5jzS+eijC1rcwTLNvBI2WHQDOajlAD+tWIbxmtWhONp6GqTZMhzUq9xysShVpwUVGp5qQGhslIUKKftWmA804Gs2zZIdtFLtU0gOaWlcpRCGbyZAwAOOxp893LcvlmyPTtUZGaTAFHMHKAUd6QoDSZNGafMJxG+WPSjyxS0lPmIcRCi4qMqBUmc0xxx1ppkuIwDnFbNiBa2z3LdcYWqFlbGeUDt1J9qs6jdIQsMR+RKiTu7GsI8q5ijK5eQk/X603I9Kj6mlxWiZk0PG2g46AVH0qS3jMsqqOpOBSciki7nytO68yH9KoLjrVrUXCskS9EGKpr0wai+lzS2pICKXK1Hj3o21DNIom2rUZUZoFKahmqGBBThGKTNLmsmaIPLFHlrS0GpZSJFIFLuWosUlSUSkCmugCFgMkAnApnPrTgxFDGtzElYXbGQ4CKoCRqcZ9ST3NVWlURMu9to5K571bvoWkvhb6day3U7cvFGvCH1LdBWjb+CteuYw0kVlbHPR3Z/0FeTOlUcmlqfY0cThoUoyk0vIwrSSSOSORR/y1CfXPtXVGJQaRPAGsRFJBqloDHyEFucZ/OlYTWh8m/URTg4Jwdre4NdWGjKC5ZHjZrVpV5KdJpiiMU9VANIGA7j86cDx1rrPIJBil4ptLSAeHA7Upkz2pmKSmAue1QvTxUbnrmpAF5qTbUKP+VTqcijUBQoFPHFNpRTTAkBp27FRg04HigCTNGaj3UbqYD85oBxTM0ZNArEjdKgY80/dUTnnmgB4PFG6ow2KTd70yWSMaYTTS1ITVpktATTDQWpm6tEZsU9Kb0pC/FIWrS5mxx5FNhl8mcN6Gk3GmNxyKaZLV0W79Nsu8dHGRUCtxVqMi6sWQ/fj5FUA2CRRfQSJwaXdUQNLupNlEuaUMBUO404NzUjSJGkVR8zBR7mlByuRyPWuU8RzubhISuFHzBgeW9sVlLdXCReUs7hOuM159THqE3FrY+iwuQSr0I1VO1z0PNLurmPD1/M07W0rl0K7lJ6iujyK6aVZVI8yPLxmElharpyZKDmmv0pQeKRuau5zJEB605aaeppwouVYWmmlP1ptO4rCE4ozSE8UzNVclqw7pTTQeaSqTIaGHimGnFhToLa5u2220Dyn1UcD8atStuZNXIVALYJpJJRGMKPxrdtvCV7MQ080cA9B87f4VsweE9OiIMu+dvV2wPyFDxEECw85O5wnmM54P4DrViHTbyYApbTuD0IQ4r0mCytrUAQQRx44+VQDU+D61m8U+iNVhu7PP4/D2pkZFmF93cCrKeFtUk+9NbxfiW/lXb7aNtQ8TPoUsNDqcX/AMIbeE5a/h/BD/jS/wDCG3WOL2En3QiuzxRtpfWKncf1Wn2ONXwxfwjiSCT6MRiqF5pl9akvLbvs/vqNw/SvQCtNIx0prEz6ieGh0PN1YHoRUitXR67pCPC91CmyZPmYKOHHf8a5pTnkdD0rohNTVzllTdN2ZIKcDUYNPpNlJD880uTTaWo5jRIXJpKKQnmi4+UbRmlpKfMJxDNBpCcU3dT5ieUM0IjSyBVGSelRk5O2tGNksYAxwZmGQPSq5tCbaktw6WFt5KEeaw+Y+lY5Yu2aWWV5nJbk9c00DiiOgpu46kopDRzE8oHpV7Tx5YeY9EH61QHzNx+VXrlvs9msX8TfM1JvoWtCnK5llLE8mgUxKfSbKSFpwPFMoqWy0rEmeaCaaAKGIxxWdzRIAadUQODTt1SWtB9GaaTgZJq1aafeX2Db27lf77cL+dQy0V84pCwA5wD9a6S28LAgG7uCfVIl/rWxbaVY2uPKtUzj7zDcf1qLlWOJhtLm5x5FvJIPULx+dX08N6nMpyIofeRs/oK7UZPU0uKVwsZXh/R30nTRbz3AuJixd5RHt3Z7Y9q1ugoH3hRRcYnWmSwRzIUkRXU8EMMg1IBikI59qAKf9lWAGPscOB/s01tJ09hj7JEPoMVexijbQBlPoViwOxHjJ7q9Z1zoMiDMEwk9FcbT+ddLtqJ48gjFMDigSrFWVldTgqwwRS1s61bkxLMBkocE/wCzWLSuBBFKGAri7++vIb4n7TJuH3gONrdxj0rq41wMEis/VbCG+njjiQvfScKiDlh7/wCNc+Ji3G6Z6mVVacKrjUjdM5k6hdCbzftEgfP3ga6vSdWN5aFnA8xDhiOh961dN+G8b2q/2hLskPJEfJx6ZNacfgDSoDmKa6VvUSVlh41U7s68xxGCrR5IbrsjJ+10n2sGi90qeyunhdWYA5RwvDDtVVoOxOD6Gu08AuC7FO+2CqP2duxpfs7eppgXvtgo+2AVS8hvWmm2bOcmkBf+1g0C6BNURA3rT0hYNTA0VlDDjioZJMGiOIgUrQ7qYmV2lNIJsdan+zimNbUXEJ54pvnjNH2Y0xoStUmSxfOFJ5vtTNlOEXFaxM2hC9Jvp/lijyhVkNDPMpN+etPMQpBCXfaoLN6AZNK5Nh9lOI5hn7p4NPvYfIn+X7p5FWYfDupTkFYREp7yHH6Vur4aaW1WO5uslehRf60OrHuCpSexyIkNHmAda7OLwrpiHLJK/sz8VaTw/pidLOM/73NQ6y6GipM4IzKOpFJ9oT+8Pzr0hdMskxttYRjp8gpxtLcDH2eLH+4Kh1exSpHnK+GrzxLEGjEUMCNhZnyWPqAKkm+GErKPK1FEPoY8/wBa9GRFjUKihVHYDFO7VyzoQnLmkerQzHEUIKnTdkjzBfCmoeHt1xJ5VxERhpUYgp+B607z+wr0a4t47q3eCZd0bjawrBm8I2ZH7meaPH975q2pJQjyo5MTVniJ+0nuc4k2akMmRWhL4ZvIeYnjmA/u8H8jVJ7Z42KSIyN6MMVpdHPYqPJg0z7RVk226o2tRTAi8+kNxipPswpjWop3Ab9opPtAoNtTTbHjGc5wMUyWhftAxyRir9hpt7qXzQRbYv8AnrJwv4etamkeF44is9+oeTqsH8KfX1NdSo4xxx0FS6nYah3May8NWduQ85NzIP74wo/CttFVFCqoVR0AGMUoGKUGs229zRJLYMHNLx60maKQxcijdUUs8UAzNIiD/abFU5fEGnRghZTIR2QUBY0c5pMnNYMnihf+Wdq3tvaqsnia5bhY409wM4p2YWOowcZ7UuD6Vx7a3eSEgXW0+uKjGoy8n7VOSTzlqLMfKdptPoaaVPoa4/7c5OfOkyf9o0ou3HSV8+oY0ahynWsp2kEZHoRXO6joFvgyWp8l/wC6eUP+FQLqNyo+S4k/E5qZNanB2TKkoPHTBoUmtiZU+bc5ssUdldSrAkMD2NPEoFWNXKT3a3ES43Ltk9dw9R9Mc1QCkCunmurnI4crLHmimmYVCEJpTGTUstIlEwp3nrVVoiKiKutFxl/zhSecPSqKrI7BQGLE4AAySa6Gx8LTS4e8m8kH/lmgy34ntU89h8rZlNMvUkfnUYmDttQFj6KMmu3tvDumW5B+ziRv70h3GtOOGKLiONEH+yoFS6o1SPO0tryRj5dpOx/65kVP/ZWpydbGYfUCvQcH1P50oGO5o9ux/V49Tz/+w9VI4sm/FhSf2Hq4/wCXJvwYGvQaX86Xt2H1eJ502k6ovWwm/AA1A9nfKDusrge+w16YRSfjR7dh9XR5xZwOsm+aKRFTk71Iqrc3ayzFiwyT616gwDDBwR6EVUuNNsrnma0hc46sgp+2J9gebecPal+0Cu2n8KaTN0gaI+sbkfpWZceClAJtr5h7SJn9RVKqg9k1qc354rEvdaaz1yBJHzBK/lbfQkdfzrpr3w5qVpGzm3MoH8UJ3Z/CuGvtJ1i61eyubrTp4LaKbcZFXdgfSsa9TazPQy+gpOTmtLP7zrvP5xT1kzTIkjk+dWDDPaphEBW99Dgs07MjLHNXtO0+61E/ulCRDrK/3fw9as6dpkcxWa4wydVj/ve59q6iL7oGAAOAAMAVm2WkVbHQ7O1w7L58o/jkHH4DtWwM465pkak1NgDrWbZaFpQKTcO1LyaQx2KKTb70x5Y4xmSRUHucUASAinZFZU3iHS4CVN0rsOyfN/KqUvjC0Ufu4J3+o21LnFdS1Tk+h0FH41yj+L5mz5dmi+hZ8/yqJvE9+3QQr/wHNS6sS1QmdhzRXEnX9SY/8fAH0QUw61qA63rn22gUvbRD2EjuDnHWmkGuI/tq/wA/8fb/AKU8a9qC/wDL0fxQGj26D2EjsJEDoUdQwIwQR2rAvtGRUL2jFWHIjY5B9ge1VE8SXqHLmGQf7uDVqPxHDOdlxbFc90ORTVSLIdKSJ4fC0Cj99cyP7KAorStNHsLGVpbe3VZWGC/ViPTNaGKQ1oSm1sNxSEU6jigQznsTUM1vHMpDxo2f7yg1PkelBPtQJnO6jo8CxGW3Ty2HVR90/h2rB9cjGK7t1DDBXI71i3mhRysXt5jEx6q4yppgc8OtOqS6tZ7NwsyYz0YHKn6GoA1IY+jOKbmkpgSeZil8wVFupu7JoEyYyUhlqKkqhEnmgGmO2RTDQDkU4iZCWINL5hpG6mkrVGbF3nNBlIGabVvS4xLqMSkBsfNg1V7K5Fruxq6ZoElyqy3haNG5EQ+8R7ntXTWtnBaptghSMd8Dk/jTolOAT1qwBiuaUm9zoUEhMUoHNFAqShcUoFJz60dOpoAdim9aQug6uB+NNM0QP+sT/vqloFmPxSYpnnRf89V/76pQ6N0dT+NO6CzHYppT3pcZ6UEEUAROpxg1nXyb4yroHX0bn/8AVWmS31qGVVbhx+VNMTOJnkWOYoM4HTd1HtUTS5rU1jSZQ/2i3HmoPvKPvD3x3rFBBGRWiIY8yU3zM0lITVIQpetXQYllvXlYAmIDaD2J71j1v+GbaTdNcuuImAVP9ojqfpSb0BHSxr8uTwKkBx0FNGW6dKxNS8V6dp7GJGNzOP4Iug+rdKg0SubwyeOpqpeatYaeP9JuUVv7gOWP4CvPdS8W6jeZUyi3jP8ABDx+ZrCN3ySOM9fX86Roqfc9BuvGsYJW0ts/7cpx+lY1z4ovLgfNcFR6RjbXKGZm7n61PBZ3NwfkQn36VooFpRRovqe8liST6nmov7QyOM5q3beHpXAMr49sVr2+hW0fVSx9DV8qJc0c+LmR+gP4VOn2pgMRv+VdRHYxIFAQDPHSpxAoHFOyJczlltrs4zGR75qYW12B9w5+tdN5SjjApDEOlIXOc35dwp5U0hkkX7ymuiaJfSoXgUjlRUtD5jDW7Ujr+Oae1zlWIOSBkY71NdacjA7V2n2FYE7y2Uh3DgfrUSiNWexdjuvNkkQnPy4J9W61NvqjaRqsYYHg8j3q2taU00jlqyTloSBvY07NRinUNkkhwRzUMgFPzVrT7H7dcFWbbEuNxHU57Ck3YpIseGrfzr+SYLkwrhfYn/6wrskj2jGABVaxtYbWIR28QjXvjqT7mroT1rCUrm0VYXA9aXIqJ5IYx80iKPdqhbULJM7rmIY/2qhyRaTLeaXNUDq+nKQDdxZ/3qadc0wMqfbItzdBnrS549x2fY0cilBFUP7Z04kD7XECegJ61Kuo2THAuYsntuo5l3FyvsWuPWggVALu1bAWeI7unzDmpAUflWBHsad+wWY7oKMUm0UhB9RRcBStMYYpfm9qQt6incLERBqJ5nTPOfY1YO01FJEWHBz9KtakPc5LxIsC3cM8MYR3BWQAYzjkGsmBlluYo3OFZwD9M1reJYyhjbHRiPzrO0uykvrxdh2RxENJIe3sPc1pGyRE7tnXRQI0jYjAyeg7VdRUj7gmokbdkINqdqgv9T0/R4fOv7mOBe288n6DqazlJJXZcU3okaKlj04p44BLHgdzXnWp/E+NdyaZbZHP72fjn2WuPvfHOo3o3SzO3sTjHtgdq5p4mK21Oyngqkt9D2e41qwtiVMu9x/CgzWTceK3b5baFF/25Du/QV41L4ouipwxXPo1UpfEd2c5l6+2BXPLFSZ1wwCW567ca/dTZ3320eiYWsyW+gdiZJt59WOa8qbVr6d8qzn3JwKFN5M2JLhgCcfLzUOcpG6w0Inpx1C0UYEiAD04qFtXslyDKPzrhbeGFEzJ5spU4YbqsxyRxsVQKGPbOSoqkmw5II7H+27RehY59BR/bltuwFc/XiuTM74Pzn8D0qrIGc/NIW2sWTPRSetOzFyxOybxDbAZwcfWoG8TW3PWuGmJ3HJJ/pVMzup4HPTNPUPZxO/Piq24AOcjPHpTP+EogOcDH41w2NiZP3m6kVMvAznJPWlqJwidsvia3J56exrW07WLeeZfLfJwTtbrXmPThDg+lW7W/a1v4HjO09G3dAaDKVNWbR9O8+lFZ8uqovEaFj6k4qlJqc7k/PtHoBXVKvBHlqDZuMVUZYgD3qB7y3T/AJaA/TmsB5i3LEn6mmb6xliX0Rap9zcbVIR91Gb9KibVVP3YfzNYxc0m4+9R7eoV7OJrnVG/55r+dNOpk4zEPwaskufWozKQcU/bVO4eziaN3LDeRGNlIyO/SuckjaCVo36jofUVrJJuYc4qpclZJGTj5gSpPY1rTrN/ERKnbVFPNJuqMSDHWl3j1rpMx9FRC4iJwJFLemacXHrTTAfSZpm4etG8UxDj1paj3jNPVgaZLIpOtNp0nBqPeAK1iZscFZ2VUXczEAAdya7DRtIhsAJC3mXBXaznovsK5fSSjanGWcKqKzsx6ACtq48QsD5VoNigf6xhyfoKyq1VHc2o0nPVHTs6RJukcIPVjiqcutWcXCsZD/sj+tcfPfM7bpHLtnqxzULXjEGuSVd9Ed0MJfdnVya+x4jhUf7xzVaTWrljxKF9gK56KSWbb5eWLelaMGmXkwz5ZHu3FZ885FujCBYfUZ26zyH8ahNyxIy7H6mrsegyn78qj6c1OugRj70zZ+lUoSe5HNBGQZ88nGaQyD0Fbf8AYMPeR8Un9h2+PvyU/ZsPaQMTzPQCjzPatk6FER8srj8Kgk0OQfckDfUUvZsPaxKAnK9GYfQkVKt/cp924kH/AALNLJpVymcR7v8Ad5qnJFJGcOCPqKXLJDvFmkut3sfPmI49GWpP+ElVMfaLUkf3o2/oaw2bHrUErjGKXPNFKlCW6OsW+s75MQXAWTqFb5TXM6gCt4Q67XP3sfxH1rOmnHkt3wDioI9ZW4SKOQk4H3ieh+tdFGtd2kc9bC8qvEvZ9aQnnpTDIvrmk8xa6ziHqpd1TpuYLn6muyuNQs9JsPPuJBHbp8iAclsdgO9cSznja2G3Ag+nNZ+sap/aqNMDgRn90mfuqD/OpmaU48zLus+KrzVMxqTbWp6Qo3J/3j/SufecBNoAHsKh8zcB9KQKXOalK502SQu5mNXrPTZ7ojA+X1NXdL0gyYkmHHYV1EFuiKoAxWiSMpT7GfZaHDEQWUOfetqOBI8AKMCnIB2qUZzVmd29xVXHBGfrUqenY9qjGfwqQMaQh+MDA/8A1UdSMcUbiRyaPvcUxCHikpGGDjFJ0osMSmsKcaaTU2AgkHFYOsWolgPGCOQfQ10DiqF4gZDSKRgWshkt0bGDjB+tWVNVYlEW+Mdm/nU4bFUcslaTJQaUmmAgUu4VLGP6jnpWrpd9b2EZ3AyTyNkIOAoxxk1kA8EDFZF3cSWd6zOpZHxnnGcdx7iubETlGPunTQjGUtTqbrxReHcPMjtkBx8gyfzNZFz4lhPE1zLIfdzXB6lqby3UjbyV3HGfSst7hmbJOc153PJ7s9WNCNj0L/hJ7NMjb+ZzUT+LbTbwrAngkdQK8/8A3jHjA96bIvHLtn0AqW2axpRR3v8AwmdrkDHTvgHFIfGkSxnAO0n5hEuD9QTXCQQRvJ82T9Wq+un2zHBj6dw3JpasrkitzqW8ZwpkeWOexHH4elInjKIc7FQf3VHX3/8ArVzf9lWZPMWAfQmnf2Ha5I8mUN6BqVmK0Ox0J8Y2zMwXahP8TR/LS/8ACXQqwKsy5G0Mp+b6+mPauWl0W26JPMMDnHIHtVR9HZZGWK5Vsd2XFGo+WDO5Tx1JH925kXHOQ5/LHTNW4viXexrzMpP+0Nw/SvMpbS6hXcVVx6oc1AZJEOHVl+oxTU5LqJ0ab6Hs1r8VPmUTWsMi99jlW/I1r2/xL0STAuVntznqV3j9K8DWbvk/UVIt04PDfrWkcRIylhIM+l7LxBouqf8AHnqVtI/90OA35GtDaw6E18vLcbiCcZ656V0ekeL9Z0wgW2oSbB/yykO9fyNdEMSupzTwbXwnuOpWMGpWphuAQQcq69VP+e1Z1lZpZWqwFwYostJI3yh27k+grA0H4ipfTRWmpWhilkOBLDyh+oPIqXU9Xi1KS4tYnAtkYxsW/ib1+lbOslG6OZUZOVmUte8etGHt9GAAGQ124yP+AL/U15ze38tzO807vNIx5d23Mf8APpTtSlMcjRg8KSKyy+Rya8ypVlPc9qhQhTWg6WZmPNVXbAxTieeOaAgBz1P8qz1Z0kHlu5znaKmS3QdBk+ppSfzpVbaMZ5q4pAx5AIIJOO59KSJmQAjJz0ApjEB8scfyqeL5QGIznpWyIaJ7L5EkBBBLknd1q2Aud21dx6kLyahQk455qUcDP9atGbQp9c8DgmmMecdR+VOJyAT0FRuTxwRmmKxVuB0Y5qmwy3AHNXZGJGVGf5VVkUFjjOaBEZfD+xFSh+n8qrkjp1qRDnNAmSE5YcYpXTLo3owz7DNRq2TiplO5eamxLPe9xIpVieT7qk/hW1Dp8Mfbc3qatBQBwABWkaHc8hz7GEmnzseVwPc1ONMbu4/AVrECm4rVUoolzZm/2Wg6yE/hTTpidmP5VqEcU0ij2cewczMeTTCB8sn5iqVxZTRDOMj1FdEy1E68VPs4j52ctvIyM+2apzXCxpJcSNtWMYroL6xVwXjAD/oa5y7aNb6OGaTyUddwkYfLnoR9RWbgk7vY1i3PRbkGn2tzqDhY12L/ABOw4X/6/tW/J4as2hCSmWQ923YJNatlDFBboIQCmODnOfepivOc4xVSm5FxpqJzg0ZbIBYZJHjzkpLzmsq9QQ3jxw52YVtuemRXUX0iopOecVzQCvNNKGyZHz9AOAKdFvmaIrxsk0Vvn7g0fN6VeCril2rXWczKGHqaItjmrDKopAAKpEsryhiDVN0ftWkxFMwtaxM2Z4le3SQkEk449RRJqikxsCMHI3Dv/wDXq1LEkilW49K5vUdMuLedZYpA6lsbR3Nctek2+Y7cLWilys3bd5buXy41LMegFdLZeH1ChrltxPVQeKNA05LO1ToZWGWNdFGowDjisVDudUqz2Q23tYYECxRqoHHAq0Bj1pqfSpRVpHO3cAMGnjpRTqpEDe5pGAobJxg4pTTEIB2xiggEUdOaUdKAZGVzUE0CSqQ6hvrVsjioXzikxHPX2lAAmHr/AHa5y6JiJDDp613Uwytc1rdoJYWZf9YOfrWco3NqdRpnJXFyhjkx1weKx9OgllZVUHA5OO1TSHfexwk8F8GuoESIMKoUegFVSpX1LxNflVl1KYD+hNHz1d2ijaPSu5Hl3KLBiOQcVy2oK9pNJGWKgklcjrXcEDHSoJ7aC5TZNErr70pQuaUqvIzj7SXzI1PfFb+k2fmyeYw4FZd9pkel3C+QzGKUkhT/AA102kpst1xUJNOzOhyTV0bMCBR0q2vSq8VWFJrQyJlp4qIU8GgRIDTl5qL8aehwcjoaYEu4gEYHPfuKODn1puc844FGcDnqKLCFJxTSaHyqbmwq+rHA/WqovrNm2C8tS3YecuT+tMZZzTTSHcoDEfL6jkfnRuzUsBrHiqdwMg5q23Sq03INSyjlLv8AdXj4B560glPrVm+UC7QHuSKQRLTWxz1VaRF5rYpwkb0qwIlAp6xrSYiNGJqSS3iuY9kybgfXtUioBUqlcj61EkmtSk7bHkeqIINVureMkqkhAzUSAAVPq7D+2744/wCW7CoEGea8eW7Po6fwolXO0n0pjLv7mnHjp1qJn5wOtQy7E8ZIHbH0q9DLGM4GD2rNzt54+lTqzBgp4YdqLg0af2hVm2hdx25ABxjNSjJPzOf+Anpj3rKa5aNxtyGJySfWh7lyPmbmnzEcppyXSKgOWfGAd3Vj6iqazDBOfm3enb61Ua5z1Ge2RxUPmk9DRcdjVZsMQhAPXJFZlwwbKHBwMj0qWOU7hnliDkVUnVj86cjuPSkwS1K0kSt8wXZjrj1quQ6kEDcPWpTKSOSalhO6AEYGamyNNip52PpU0NwQetU5B85IPGaWLnPpQmNpHRWd7tbcWK7e4rUh1WQFpoyVDH94p6g+9VfCmg/2qs9xLM6QqQpCgZJ9q7ey0m1tLdoFjUo3UsMlvrXdSoSnFM8uviYU52OA1STfc785DjIrP34Ndf4q0GK2shfWibVRv3qZzgHuK40H5wK4q1OVOfKz0sNWjWhzRJyNq5zTSaM1Hu4NI3ELdfSlEgGDn8Kjb730qJm2n3qkBZ354P5VYjIU9s1SQHp2AqxGcHJHWtUTI0I3PrUwbOD0GelVY+3TnpmrIB78DFMhjsnJ3EY68U3eQuQOenIqT/Z6H0qNjgd+T1AqkIrSHaD0x/KqsnJGRVuUElh3NU26dRnrTJsQsCDnp/WkDYH1olfJxtwe/oKi3c4AyPSgRIXwwI5zVpGyRzVFGyc5NTqx645oE4n1bijbThzS12HhEe3Apm01NwabigCPaaYQasEcU0ik0BXYUw9KsEA0wrUgVJlGDXJeL7QNpbXSDLW7+Z+Heuxdcisy/gWWCSJxlXUq30NZzV1ZmtKbhJSRyfhvxH5RS2lP7tuASehrq5r4Luya8efdZXctq7EPC5Qn6V2ltqZutNjlLDco2tXKk4aHqzjGfvot6nf73ESH5mOPwqqBtAUdulZ9owub2Sfrs+WtDNdeHjZXPOxU/e5V0JQTS5NIpzzS103OQQ5NIc+tOpveqQmNNMbnpTj1ptbIzYh6Uwp5ksQPZwaeelM81I5Yy7ADeBk0T+EdP40dbZEhRj8a1Y2yB29qybP7nuRWnChz1/CuG56TLop61GvTmpEGKDJjxS5wKQUvbmrIGjnuadijjFHBoAQ0ZpCQKQ0AKSMVA+KlJqKTpSYipMcCse/IZCPatWYnbWLqBwhqSoo881CLbrcSDozgiukySTXP6j82t2hHUyYrfBroorQwxT95C5PrSZNBozW9jkuGSe9WLSzlvWIXgDjPvVbNaWk6gtum0EBhnP4msq9Tkjc6cLS9rO3Y5zxXZXenRRSMoltlkG5wMFfrWlYkLGuPQVratNDfWMsDgNvQqRn1rl9Dui9nGrH5kGw/UcVz0arlLVnfUoqMNFY6qJuKsKciqML5FW0auw42WRT6hDU/NAiUHApwJqHdiklnjggeaWRY4UUu8jHhVAyT+FUAt5fWun2cl3dzLBBF993/AEAHcnsB1rKW41nWFDQBtHsyOGkQPdP+B+WMfmaqabDJrd3DrV+hWIZbTrZ+kEf/AD1b1dhzk/dFWbHxPp97LCoE8KXLFbW4nTbHckH+FvU9gcZpLXcBR4X0p2D3Vu97LnPmXkrSn9eP0qZvD2jldp0mxx6eQK03ZYojJKwjQdWc7QPxNY8nivw9ESG1mzJ6HYxbH5Cq0EQf8IvaW7l9Le602Y5IazkO0/VDlWoTV7vSmVNbEZtyQq6lAu2PJ6CVP4P94Er9Ko3Wow+J9Ti0zTb1n0+FPPvp7VypYk4jiDdRyCx+gq1p13P9pm0bVGWe4WLzIp3QYvIOhJHTcvRh3yDUtXGb7Z5zVeXoaxrBjol9DpTsx065ytg7nJhccmAk/wAJHKn6ithzkVNijC1IYdHPZs00E55qXVV3QNVdDuUH1FNdjKutUyZSfWngmo1qQVLMUPyacPvD6img5pw4ZfrWbZSPJdVOdavR1/ftj86Yv3RS3xL6veMf+erfzoXoK8eb1Z9NT+FDjntUeMHJ4qQ1E+c1kzRIVCAQfypvmZbI+mPSkVgWGR+FORMZ3HGOlK42PjDKTlsg9amyTnPG4c96EUtgBMgDt3NXI7cuw4zx1HrVGbKKxeY5+8QOOKHhABwCD3zWi8XlAAA+ZjsKpzODkcDFUK5GFMcZ2jJ6ZHGKryuQQck89uKmIO7b7cGq8pJbjAIpMZXkgDMQDhaXKwxHb1Ap0jFzu2CMHkgdB9Ka0YKlex7mgpamdu5p8X3uehpnRjznBqaMfucHvmpKbPRvAaldCmdxgNN8p9cCunU1yfhuIx+H7c7j87M/5mumicLGNxxXv0abjSifL16ilWkGoW327Tbi1JwJYyuff/IryRchjnqDivYkcHlcHFeZ+JbMWOv3Ea5CSHzF+h7Vw5hT0Uj08qqe84dzMzwKaaXkc0h9q89Ht2IXeo9pzxT2GelIAB1qkFiVGXPPf0qZDgjGc1SRiDjGVzVuPOQMfQZrRMlovR5z93t0FXIULEBQTk9Bzislbt5GKWSLLtODMxxGp9M9Wq3HYvMQby8nnOPuofKT6YHNWl3Mm+xoFcYVmjXvl3ApigvkxlX/AN1gTUCaZp6j5bKL05Gf50raVYSLlrOAf7SAqf0o0FaQ2ZCnBUjHY1RztJ9+ameykgINrdyxf7Ep8yM+3PNVJLmRZViu40hcnCuG3RyH2PY+xqkuwr2dmI+G6ck1WkBVsH0qywZTtIIP5VG4zx/Sk9CrESnFTxg1AOCOfyqxHn1pXE1ofWAFLSClruPAExRilpDQDA9KYarahqdnplv597cLDHnALHlj6AdSay11jVL3nTtHYRHpNeP5QP0XBNJsLG4ajNZGzxKRuNxpan+75TkfnmmNf61a/wDH1pcVyg6vZzfN/wB8sP60gsarVSuE3qR60tjqlnqauLaXMif6yJxtkT6qeRUky7lxUjPIPHNv9i1uK4Awl0nJH95aoWF+0cEqEnB/nXaePdO+06LJMq5kt281fp3rz/SIBc3UMYPys2T9KwqRu0d9Gpem/I7bSrbyNPQN95/mY1axQsqgYHQUwyAGuyKsrHnTlzO5MvAp1QCVaUTLTJJqaRURuFpDcL61cRMfjNMchAWY4AGc03z1NUb268xTGv3QcH606lRU43YUqTqz5SS3upNRu2t7MKAi7pJX6KO3Hc1uW2lWjzI0kYuJVI2mTsfUCuT8PyXEeoXW1kWOYDluMEdK6NL+PToirzq87ck46ewrzpV5SWrPXhhYw+FanUpNDCCpwSO/pWhbSLLErjo1ecXGrlopJC+1FHX1rudDdm0i1Z/vFMmlSk3Kw69HlhzGutSVEpqTtXUcLHZxWbqmv6do4QXk+2WQ4jhQFpHPso5NUNX1e7lvho2jFPtzKHnncZW0jPRiO7Hsv40lhFoWhailm11GdWuV3GSdwZpffPp7CqJJBrGt3a7rDQSgzw17OI+PXaATTnm8VBMraaQT/d86Tn8cVugE0Hr1oEc42u6rZjOo+Hp/LH3pbKUTAf8AAeDWjpmt6frMDS2FykwQ4dRwyH0ZTyKtXVxDZ28lzPIkUMa7nkY4CgdSa5f7Po3jCP8AtTSrqS11CA7VvIk2SxnsHU43KRg4PUUDOrJzUTng1jaJrNzPdS6Vq0aQ6rbqGbZ9ydOnmJ7eo7GthyMUmIpzcrWJqB+X61tTHg1iahgqakuJwd6N2vWwHQODW9msCX5vEVunfdxW4HwcHt3rqw691nFi376Q/NFN3D1pNw9a6UjkbGXMwggZz2rDn1iO2bCNlm+Y/wBBVzXJjDp5kxlQcN+NcLNOGc4yB/KvNxt3LlPdytRUHLqdOvibqGJFQ6BqSy394itgeZvA+tclPKEGc/nTPDepCLxKsWeJVI/EdKxoq0jsxOq0PabZwVFaEZ4rDsZdyLWtG/yivTR5ElZlsHNPDcVXDcU4NxVWIJg2D1rnvEzi8l0vQgcR6jOXuCD/AMsI8Mw/E4Fbe/Fc+53/ABDjyMiLSWC/VpRmmw6lvxXdPb+E9ReNvLlljEMZXsXIX+RrVbTLV9O/s6aCN7VY1iMTD5SFGP0rA8Ynd4cUf9P1t/6MFdNLIqyuXZVXceWOKdrsDIh8K6cuGuxPqBXhGvZTKEHYAHjitNLaGBMRRRxj0VAB+gqnEree0p1IPK0mQoYbdnZQv9aW61uzstTtNOlaX7Vd/wCpRYiwOOuW6CnawiUT2Ud41ossK3ONxiBAY+/vWR4mSWGzh1a1UtdaZJ9oVR1ePpIn4rz+FWbyS2sDGPIViJDKkkjBVVz1O45JPsKx/EmszweG55oXZXVkWeeKI7Y4S2HZd3UgH9aJLQa3NrUrSLWtHMcEh8u4RZbWbHRh8yMD7Gl0rUv7U0m3vGXbK6kSr/dkXhh+dcbY3+maRCt1oN1eNY2zRrcwTuzRvCxwHUnoyk54rodI/wBG1XXLAN8qXSXCD0Ei8/qDWbKLl+N0TD2rNs2zABnleK07nlTWNbuI3lj/ANrNSn7xFZXhcvqakXmq6yD0p4lAoaOWJOOKlQ4YZ71WV2cjFXbezdyHc7V9TWctDRbnj14Q2p3ZHQzN/OlT7tMn2/b7kK2f3rY/OpFGK8SW7PqKa0Qp7CoyM5xz7VIfeoyTuwOKzZoNWMqxOPzqzFbuxDb8cemagTO85PSp436ckUITL8AjUAAg9+elTlkK7eVxz8tVowoGR+dPfhSQOtUZNBJImz7x6/w1SkKBuZVye3rUrYBGAR3NUbhjyAgx3NO4WFmc8Aev51Ulb19aPNKDHBU9vSoZW4pNlJAZe24kelRvIxGOR7VGxqMkZ5qbl2FK9xjH16VLtxCPWmIu45I47CplG5kGeM9qcdWEtFc9S0u0aLTbXcu1ViXj3xUV1cFnKqSBV6G9+0QCEEE7RgiqBtHDkycKD1r6ilpufF1rttovaYXKEt07VzfjyDE1ldDowMZ+o5rpre4jUBF6VQ8U2v2zw/MV5eEiVR646/zrmxkHKm0duXVFCrF3POx0pCAaUCkOfrXz0WfXEZBNNI496kPNNI5rQqwiRc8jk9KYCb12jVmFqh2yEcGVv7o9hRdyPFblYz+9lIjT6nqasgR2VmxjH7uFCV98f/XrWLsrmc9XYtW8sQlFukkfmKMCJTyo9MVoJ23fr2rFtLKKTT4lmQO7/vGccNuPOQfWrsUepN+7e8jVB/y1VN0jD3HQGm0r7mab7Gttd8bQSMdcdacUEau8mFVF3Nz0FZ66VbyMXmkuLlx1MspH6Cn/ANlabhQbdBk9Nx5oTQ2pdiqFvriL7dE5V3+aOzYfKY+w9mPrUbvDdWe4AvBIMMknUEdQR6itl1BGAAW6YArEuF8jVWBUCK7GR6LIv+Ipp3I5eUz43a2mW3kZmib/AFEjHn/dPv6GpnwM56k8cUt3bCaIwc/P90/3SOhqG1maaFWkHzglJB/tDrVN3VxqPK7CkjPvUkZORSEZc+lOVTwegzUjZ9Yjilpuc0o4ruR88xayda1j+zFihghNxfXLbLe3BxuPck9lHc1pySLFG0jkBVBLE9gK57w9G2oSTa9cKRJd/Lbq3/LOAHgD69TQxIl03QBBdf2jqU323UyMeaw+WIH+GNf4R+prbxg+tczHJrGrajqEtlqCW1vayiCGN4g6yMPvFu/Xjinr4ku4D9lvNGuf7SP3Ybf545R/eD9APrzU3GdCaoatqEOk6bPfXGTHCu7aOrHsB9TVMR+I7wbnuLPTkP8AAiGZ/wAScCoZtBvrswre61JPBHMspi+zqu8qcgZB4GaLhYqq0GvS+XdW8mm6zbqH4YGSMHurfxr61dsr6V5nsL4Kl7Gu7KjCzL/fX+o7VLrOmtfRLPbEJf25328h7Hup9m6GqvGu6TBdQ/6PdId0eesMo4Kn2zwfalcQ7UbdJ4XjkGUYbT9DXmHh7RJLO8vhK24QyGJOO3XP5V6jBOt9ZiXZsfJWSP8AuOOornrmFba9kO3AlwT9RRDVlczSt3KJgIHFRGFiavM4I6UgIrYi5TED0eQ/pV4EUZWmiTONu/rUbQS7goBJPQCtKSeNOOrU0sI0Z27jPXmsquIjT0WrN6WHdTV6Iz2tWiA82UBzwETk5+tVbnQ5ZgxineMsM5xn9KtW7o8xaQj5jwOmB6V0NlBG8R+YHnjceK5XUlU0Z2qnGjrE80vrLWdGR5pE8237yRA8fVeorPh1uJ/3rzqy/wB7dXp99Z3zTJHBGjCQEglsYHqR6VzmpfC611VnklkEEr8lrcYz9V6Gn7LubwxFkc1/bsWpX1vZWzboY23Ow6M3YV7rpq+XYQJ6IP5V45Y/DPUtB1KCa3niv7PeN5VdkkYz1KnqPpXs8GAqgfdxgGrhGzM69VTii4v1qpq2pLpOlXN8y7zEvyoOrseFX8TVtDg1j66PtN9otmeUkuvNf3EYyP1IrY4WrjtHsF0HRpbi8kElywa6vZv774yfwA4HsKo6NoFvq3h6W41aETT6r+/mLcMo/gAPbaMYx3q34vk/4pueAAk3TpbgDvvYA1voixxqiDCqMADtimibHN2dl4pggFkL+zMcR2peSoXllXtuXgA+/erH9k69wT4kOfQWSY/nWpBLeF908SIjdFByU+p75q0cKOmaYXOVm8O6pqU9smu6jb3dhbP5vkxQGPznH3fMGSMDrjuaj11BoniDT9ehAWO4kWyvxwA6t/q3PurcfRq6FDei4DzeV5DA5XHKHtz3rF8a/ZJPCGoLcXEUI8vMUknQSDlMepyO1MLdR3ijTpri0TULEAappxM9scfewPmj+jAY/KtGyv4dT023voCfKuIxImeoB7H6VS0DxLY6/aRyW84NykaPPAylXjJHdTg4zmqHhRfsltqmmYAWxv5EjUdkb51/malh1Nib7prC1E/K1bkx4Nc/qhwhPHSpZpE41T5euxXJC7Y3BJJ4FdZb2iarD9ohCojEjdng/QV574mlxpt5sbJJQAj616d4XRbfw9ZAjCrCCaaruHuxNJ4SNRc8jLvNHntU3ZV1/wBnrWYyMOQa6DVtYjRs5AOeKz0uoZkAniH1FdeHqupe55uNw8aNrdTGu4ftVrLA4OJFI/GvMpHkhkKsehwfbFeyGzjkOYZQ3s3BrynxJb/ZNdvIumHz+YzUY2K5VI1y2o1JxMK7uJGGIxz3JrPt2a0vIbkHLRuH5/WtXY9y3lwRvM3pEpY/pVpPBPie9TMGi3O095cJn864Yux6k3dHp+k3KyxIynhhnNdBE3Fcn4Z0LxBYabFDqGnyJJGu3IcNn06V00RZCFkVkb0YYrvhNPqcE4l0NxTgeKiB4pa2RjYeSa5+9P2bxtpdwSQt5aTWefR1IcfmM1ulqyPEFhPqGmlbMgX1tItzaH/pqnb8RkfjV20uIl8RW0l/4Z1CGH/XCIyxcdHT5h/KrUeoQ6jpNpqPniOK4jWYEKGJJHQD1zTNL1SHVNPt7+2G2OUZ2E8o4+8hHqDxU2ladb6XA1va7lhMjSKhbIQnqF9B7U/MAgjladJNjrGpzmUjcfwA4/Os3xNBqa6a95YTh7m0PnRJtC4H8WD/AHtvGT710IxWTr+mTapZqkE5jdDuCE/u5f8AZf09j2pvURnafrumaqLK3hkuw1wplVmJDKQMlS3XP+FWNTtL4WTrYTNJLJ8gW4cNGoPBY8ZOB271l3M1oNHP2OzmtXtT5uduTb3CH/VsByzHkD1BzXSWt1Hf2cN3Djy5UDjB6eo/A8ULXQZy2uafDpfgZdHtyzZ8q1twx+aRy4Of5n2rStGI8ZazzwLS2B+uWrTntYbiSFpEVnibdG5/5ZkjBI9OKxvDbfbW1LVwD5d9c/uM/wDPJBtU/Q4JqGtRo2JskVkC3kluysS7nYhQo71ry96qW832e/hk6YbB+hrCq3FXRpGCn7rNa08OjZm4ky3cL0FOutCjiXfGx981oLKY+RmnTXQkTnAFeWsRK/NfU7lhIOPLbQxFkt7c/IC7DuegNRyXckreuP0ptyii+k91B4oC46V2xqc8FI8qpT5Kjh2PJJYiLyY995B/OpAPlFPHzvK3+2386QjAryJPVn0kPhQ01GPvZqQ9cUxcgnFQyxyQuyvKu0omM5IB56YHf+lTRxDfg8nqMdKjjycfLyO9WURj/wDWpCZPGFUZUfhSk9cdO9KqZUZHSlIHUf8A66ogqSK7N2AHPHeqc0ecnBPFXpJViJPU9qoyTFvlI560mxlR4yW4H61A69xU8rEn7xB9KrknHPWlcdiFhxg0ySSOOAmTO4n5cdW9qfIwUF2OFXkn0FNgi3KbubhiMqP7i/4mrilbmZT00QxUuZD80vkL/cjGWH1Jq9pVnPd6nBZiXf5xIV2GCpxmq8IkTPnlVDpvRTxt9veut8A2ofxLHK8MrwpG3ziMld3bmtaTvUSexhXsqTfU6TTLCay8qOR9xQYqbU3cybcfLWrqVrIJy8EMrJ3IXpUKLHcKC6/MOxGK+hhOGjTPk5056xZnWkTORgYFaLWxkjeJuVdSp+hqdFRAAqgVMjDg0VHzhShybHj8kDQzSQsCGjYg5qMrXR+J7VYfEFzt6Ptf8xWGyYNfM1FyzcT7ehL2lOMu5X6fWm4wKlYelNPJpXNkinN82p2q9o0aTHv0p+okjSbk9flAz6ZNBG3V7ct/HAyj6in6ipfSpwpydu78jWvWJny/EacSIoUf7IH6VOJJDMypAZNgBdi23r0C+tVw/wC5jlQgb1BUld3UelWFlmSPOZAvq0AA/nSvqFtEaESiTBQN82MA9adNbtKVjO4IDlgOGPsD2qrcqs1o8HmzRSsu5TFkHP19PWp7B4buwRYkdoQm0uz53EdcHqaXS5LdnZkIjig/cmVpZAeCBuIHvj0rM1VXlkWwhVRLxMZS3EWDwR6k+lbBt5I18sxSlB0VHVAfwFY+r2qyyWsduskV5u2rH6x9y3oB61pB6mc9IlB5Z4Z0+0vG8ch2iWNdu1vce9MiVotUuo/u+YiyjHr0NWdUsIraxZLfcFM6YDHOTmkljP8Abox2t2yfxqrroKzQ3ac4/OpAD3p0g259O9Kq7hzWdzRxPqgHmgmog4xShiT7V38x87YyfFkrJ4enRDhp2WD/AL6IB/nWvDCkEUcKDCRqFUegFYPi5saJHKcAR3ULnJxwHFbofLE5GBQ3qJRdjF8L/wDHvqIPX7fLn862Li5itofMlOFzj1JPoBXN6TK9p4j12xQZZpkuVB7K69fzBrVmkIYJMsbEMCu5u/sKzdXVotQ0uXorhJQSuVI6qwwRTbjzWjIhbaxIG7GcD1qKKfcru6gbfYjP51g2N41jrNzb3Gpy3pu232kbKBtUfeVQOwyOaHU0Gom4JDEipcTI0hOFIGC3pxXNteXsHiXUYtL08XMAVGuw0ojxKRxs45JHX8K2ZYGRyY1kKOMkqQCT9etcxq9tt8RacltNPDNeZS5hVuXjUf6zPbb0z3zU8+lhchqW93C9/HcwbhBf5VlYYKTL2I7Ht+FVtZhzDvHVDn8O9Vr9Xtrq/jTkhI71D/tqcMfxFal2Vmh3DlXUH8CKSqWZXJdHPdeKcBSAbfl9DinCuy6ZzMKoatqlvpNr59zJsQnaMDJJ9B71oVwfxQEiafpU4BMUdyd5A6EgYz+RpSb5XYukk5q50z3SQ8sw3Hn6Vk6j4hhiTG8L7E1xmo+JWuD+4Y7SO/0rDMr3LA7y2a8xQd7s9i6WiO6t/Ets02WbI9RXUWPiC0kURyXKqj+qkEfjXkMcLjO3J9Kv2rvbY+bH+82K0UbaoLp6M9m0+6ddVma4cHzUHlS/wuB6GughmJYlgGBPU15b4a1iK2kCzjdCx5jY/Kfceh967iEbYvtGl3qSwkf6mZvmX23d61VSxnKlqddEiPF5kZUPjlH/AMags7tJneNCPl5yDkVxOoa/dlfsqgRlhhznJPtV/wAIXn2u+uypBjiRYwR3Peo9rzSVkN4Zxg5SZ3Ck4rI1UsviLQXA+UtOn4lRj+Vaikke1ZXihZI9Kjv4gWk0+ZbraP4lHDj/AL5JrqOF6DfFr7NGtpm4Ed7bs3/fYFbF0V3AGRARnAIJP5Uy5trTWdLeCUeba3CA/KcZB5BB/KraRIuMDLAAFj1OKpEXILYuqu+HIA4Gev0BrDsnS28Z6gga6kuJoEk8l5DsjGSCQDxk+3TFdRiuTNm2ra99quR9judP3IuxuWjbvnupx36EUMFqzYvI2EzZVmQ85KbgP1rkfGc81rceH9Rt9l3JBeGNbSQbfMLgAMq9yvX2Brp9HkYR3VpLI0klpMV3N1KnlT+VSf2RZDVTqrQh75o/LErnOxfRQeme+OtG5T2OZ1Zb6PXfDNzeLbjUft7weZb5+eEoSwOfoKt6Dk+IPFMoH7tr2NVPuIxn+dRTSSvr02tamhtdO0iORbYMeZSR88p9sDao+tJ4Tjmh0IXFwnl3V9I95MvPBkOQPwGBQxJG5Metc9q7YgY/hW1JKCP8K53WpB9mYDrzipZpFanm/iGUiGZMjJkT+deii+NtodoBINphU4/CvKPEUpVjlhy659sVvnVPtelQKGJ2xgHHtXPUTud1Nq1mW59WS8120gJ+QyZ578VstcQjJLAH615vYXP2jxTYxuxw04UY7cGvStC0dUupWmYSQxkMiHklj6+1d2FnGlScpHj49SrV1GJctdPlnUSu3lRkZGVyxH07Uh8IaHd3xub2z+1SnGXmc449hxW28gHXkmqj30MWQWFcdXEzqbvQ6qGGhS+HcnURWyrb2UUcCYxtiQJn24qyi4GGbOOpPJrm5dYiScnPOeuavW2qhlBBBHXrWFzp5Ga5Y79q4UDksew9afsMi7RC8q+rkDP4Vmx3KPIMfMgIZh047Vpi4Eh3cEn0ramk9SZIVNLhdPlMkL+n3lqhcW8ls+xwCOzL0Na0NwfMCKpLHisTW9atxJNGjgpEypn1bPNdMazhJK5zSpXbsNJphHGM00SZGaNxzivTRytWMe5t7rStQl1LTYDPFcHde2SHaZGHSWP0f1HetjS9TtNTtftNlMJogcNgYZD6MvVTTsA8ms690K2u7n7Yhltb4DAurZtkn0PZh7GnbsI3gwPfikJ9s4rnxJ4js1IDWGqKOnmA28n4kZU08azqoGJfDU+71iu0Zf5UCJtQ0K3vr2C7LyxTQkfPEcFwOmT6jnB681ct7aK1iWC3jCIo+VF7eprLOq65McQ6FFF/t3F3nH4KKgk0nUNSUrq+olrc/etLNTDGfZmzuYflR6AM1G9bXJJdI02XMJ+S+vUPyxL3jQ/xOehx0FbUEMUEKRQxiOKNQiIP4VAwBTba2htIEghiSKGMYSNBhVHsKmwMcUraDIpelZd58oz6c1qSdQOma5uHWIdSur+zVPLmtGw3zBtw9eP5VhUj0NoPU7zT51lsEYdcZOaz76+WFuWGKy7DUVTTEDPggbW+orK1O/QgkMcivnqis7HtUIp6mtDdi6vHxyNmKubeGrnNCullujg8lTXSZ/dOe+0/yNenh7KlY8bGK1dnk44Zx/tH+dKR2owVdyPUjn60vUZrym9T3Y7IjbrTRnOaey8fypAq+9Q2UkSICWqygAyoODVZMDk9MdasIcYG78aSYMm5A4OPrUbO4jJ2HI4J7D0qTOWyc5NI0YIPJOetFyShLsYEhuR61SmbDAg5NXpYGRsg7lPfHT61TmUDr0pNlIrN8w5NRYHSpiOx4xTSvNSmVYrvb+fJFB/C7bm+gruPC/gn/hJIHubq4aCxSTZiMfPKR1APYDgVxyEi9Y/3YR09zXp/w31uE6A9g7AS20zEjuVbkGteay9DGpGT+E6W08I6Bpjq0Gnw+b/z1lHmN+taRjYIQjKEXso2gfhT5Z02bhgr2Iql/aUXnKqHex4CjqatWkjJQdrgJZEbDc4OCfSs2/bDs2AVbqv+B7UX+oxpdMocZXjP86xb3WYo15OTnjFTG8XdFygpLVGPq/iW/wDDl+kV1Al5YzDdBMPlfHdT2JFa+jeItP1wMLSQiVRlonGGWsLxBNb6t4eng/jjPmREdmHb8a89tL6fT7uO8t3Mc0fOR39jXp0cXJaSPPr4GD1irHqXi633JbXQUcZRmH6VybpXd3wGseGRPGnMkSzIoOcHFcORuA4rkx0eWrzLqd2VTvScH0Kjj2phTirTqaiK89a5OY9VIoXgEQhucf6iQFv908GrxjUh1OCuMEexpfLV1KMNyMCrD1BqKzyoaylIMkS5jb/npH2I9x0NaJ3jp0E1aV+4aes8dstqRtkiOwOeQ69iKvLbo0uWHmMo+8/JpyJ/EOwwaswR/u+Rkk8+1S5Nu4ezSViwkwhhkmcuFUDO0ZJ/CqlhaTSmWWCQw2lw24AHIH09f0rRiBU8cHOAKjmiNvHM0ZYW78yrH96I/wB9f6iqUjGpC+o+z+a1KSY86E+U2T1I7/iMUySFFZpEjAdxh2A5bHr7U20eSa7adcvDImGyv3Mfdyf4ifarUmQ2cD3pvcUXdGLd2zTXcDHBhiy+zHLP2z9KoRjzNTvZ8krHtgU+/U1ralP9lhURqXuZSVgT+83r9BVeGz+yWqQZ3Fclm/vMep/OrTtHUmycirIOBxx3oVMfjU7Ljr+Jpu3HX8Km5bR9B6jrUcUC7du5mwAPSrEN550KvGpwwyK8wvZ/L1QQJcvOqLw0jZx612ehaikdqqTtxu+U9qj63KVdxeiPOng1CkpLc2tX09dX0a6sGOPPiKA+h7H86g8Map/auhwTtnz4wYbhTwVkXhq0t4xnHb8q5fUWk0DVJtds1aWxnwNRgQZKkdJVHrjqPTmu7mS1PN5WT+JXbStQsvEUaM0VuDBeqgyTA3O7H+yefoTWuZ1uEWS1MflyKHE687gfSqaXMd/FHPbTq0Tchx8wcH+YqZ1ITKjCj+EcAVlKve9jWNG25bhhWFSwyWbqxOSfrXO+LWgnhtoMSR3TOGt7lV/1bemff0PFa6yTRqTGpIA4BqZDFfxSQyorKeHVuQ1KNRN2CULamXbJd6dOJ7udpUkwko7RnsR/I1rSQIZN+xfMAwGxyB6ZrnNRsrixkwiyXUUi+Qjqx8yFCfu+/sx6VvWMc0djElwR5ijHXPHbJ7mqTtoDV9TJv9Oxd3l9JJuRrMwhP7gGSTnvmorEb9GsyRyYE/lU/iS5MWmvbxjNxeH7PCvclup/AZNWBAkEEcK/djUIPoKiY4nM3KiKfn+KozItWdagIhLp95TmsJZJG9a7MPLmhbsc9eNpXNQSLVTVLC31jS7iwuD+7nTbnGdp7H8DUG+QdjS+Y4FdCVzHZnh11a3GmXs9lcDbNC5RvQ+9NieZM7FBP1xXb/ESwQpb6qBtfPlSn+8Ox/CuPt7G9ul329ncyBRnekRIx9a5qkbM9ClU5o3IWnvTz5gjT0XrVWZmf7zM/uxzVq5ElvxcQyRE/wDPRCufzqjI+RkdPaiKLk/MjS9ubSXdBO8YPZTxW1a+LdWtxhZw4PUEYzXOS8gmold1OPStHBS3Mo1pQejO8svEWoakXRnWJcgHYDk/jXs3w5g8vSpZf7zAD8K8A8KMXupQfY19LeGIBa6FaxKuG27j9TWPIlI65VHKld9To42zyM1ZA3KVYAg8EHpiqydKsocVscMkc7p8x8M3q6Tdnbpszn7DcMeEzyYmPbH8J7jjtXVAjpVS6tIL+2ktrmJJYJBtdHGQRWPFYaxomF0+ZdQsRwLa6fbJGPRZOcj2P51SZnY6QmsbXdPe4hE9vCssyKymFvuzIeqH9CKaPEUMS/6bZXtqw6h4Sw/Ncimv4s0VQSbw59BG2f5U7hZkej6fd2k89xOT+/RMx5zhh3HoMdvatSeTZEzAEgLnaoyTisp/EgmwNP0u/u2Zcg+X5afizVlXOj6vroK6vPFDYMcPYWkhG4f7cnVh7DApF6tmZcXZ8Y3scNuWbQYGDXUuMfaXBysS/wCyDyx79K6FpS0hUDJAz04HtTQUtQtikawRjCWwRhggdQBjjH61G/mKBgckkuSc4+nvSkzeEbmdc6i9uZXeNvJQLggZZmPUY9qxrzU1uYpEHysn3kPX2q/cKbiKOSKTz/JkLNzyPaud1cxtB5+5VcjbvXqV7D8KlGsoLc4DxJJmQ46eYDmpY9Tit/D2xUxKzEM3tWdr0hLAE878Cs4Flj2E9OcVElczTsbfg+M3XjOxJP8AqmaQ59Ap/wAa9Qn1RdLuF3nCygEH3FeefDq2Z9YnvSPliTYCR3Nd7q1guqWRgZtrg7o3x9011Klz0HE86VZQxKk9iO/8URRrhGGSOoNcvd+JZJAdowe1Yl/BPZTyW86srqeazWukiOJDge4rz+Szsz1+aNro1JtTnlcMzt16ZyK1bDxFIu2OU4x0PYVyEmqxIPkUyH0FRDUZWIxAqfU5quUakj13TdZ+YMJeowwY5B/CukWB54xLp0qJJj5omb5W+npXj+ildQjk2z+TMmMKRkOPr2q3F4mm025khM0yvE2xhjjIqLSWxTUX1sek3us6hYWzhohHcEbSwOQo/qa4S+1Jt9rbhjmWYMcnsDVK68UzXi4d5JPY8VRsBLe6xDJKckuoAHQD0rfD0m5pyMqsoxi0j1yJiRU6niq6DAqRnCIzN0VSx+g5r2VoeUywrCngjrmsW81yC00ZdVhH2m3cxlSpxuVjjd+HpVy91BLGAOAJWdwkeWChiehJPQY5zTuIvsQSvr0py4PHX1rHtNaF7p11dRQh5bYMrRK+5HYDI2t/ED61Fa3F3AmmXL6g93HesqMrABSWGd0eOmOhFCdxM3iMdsemeKjDKxZQVJX7w7r9awtStZZ7lLFvN+x6hOkpdCf3DpyeewPBHuKu6T9rY3s15HsnlnGSOj7VxvHsadhEesS39tbPcWtykSxgb1aEOcZ5Oc9hUlxdnT7RWlZrmUsEQ8IZGPT2Wrd1CtzazQtnbKhQ/Q1n3mmG+0mO0uHUyoqHft3DevQ4PUe1JjGS6on9mi9ijMiKSJB5ir5ePvZPQ4/Ws1NGs7bVLnVLZAHu4xvKjAbuGx2Jq3Npck2k/ZnFqkiyeYqxxYiBHQFSeamggaCyihdvMaNApbGN34VlJGkTjNZ1OTSdSWEf6uZd4+o4NdB4V0E+I0W+vpDHY5+WNeHl/HsK5P4kRlLOyulHKSPGfowz/Su58Ja3BceH7QW5CxpGFIz3FeLiIqMrnrUZOUOVHbR2Vja26xW1pCkSjhQgxUN1ZWn2OaVYhG4QnKHHb0qhFqBf5AcD69BT726DaTdMp/gPNck6zXwlvDJ7nlN9GFkJAA3c4FVRkVau3DvgcgDAqv3rK51MYRnj1701lIcDAzn1zUhANAUZHqKiUhpDGYpxkVJFIxwdoAz2qoZWa7MZ2MpGcg8jHrV2CM45OPYVN7MdiyBjHJ+tBJyPrT1AKjOcA9PSmyKxB53Y/SncmxWmyCfSqU5LkEn8cVpOnGCfrVWaJQCTwB3PFJu+xSRnMhJ6Umw4rTs9LvtRcCxsri4H95Izt/PpXR2Xw51a4YNeTwWSf3f9Y/5DgfnSUZClUhHqcIUxfOD1aEH9adpN7JpesSTeYVjlCjP0r1WH4caIjRyXFxd3MigjJk2A/gKsr4C8MEEHSkZx/wA9JGOf1rbmjs2QqttUjP0zUIr6ELLftEv+yRmtC41PStNtmjtWHmMPmkZsk/jUtv4V8MpjGkRKAccs3H61pJ4Z0FV+TSrXHuuaUIrZMmdVXu0eZ6jqkZLHzlz15YDFczc6gkshJmB+le4roeiI2U0iyBHQ+UDUwt7VMhLa3x3HlKB/KumKijKVZvZHgDXp8oqkmQRyAaomEyEBVyT0A717trPhPRNVQ/aNPjVyMrPCNjr78cGuT0rwnDpeous5Fw0TBo5DxvHY49q2pRU5cqMatbkjzM3NBs3tdAtLSYFXEW1ge2a4ua3aGaSNlwUYjFeghnz3z9a5XW4DHqUhK4EmHBz19a1zGH7tNdDLKKv75xfUwGTFRlO9XHTmoinWvG5j6NIrbabNbJOgDEoyHdHIn3kb1H+FWigxShQMZq1Jp3KtdWZWjuzbkJfgRMeBOo/dSf8AxJrUiztDAZU9GHIPvUAAZSpUYYYweQfwqOLS4ImzavPaOf8Ang+FP1U8VpeMvIycZR21NVORtH4+1WFHQDtxn1rLjt9SXG3Uon/662oyPyNWkh1JjhtThX/rlaj+poVl1M232L4jJXAXhRwBwAKzJr+MymGzj+2XGeQhwie7N0qc6VHNzeXFzdY7SSYX/vkVZWBIoljiRY4v7iDAqk0ifee2hlRWJila4nkE91INpccBR/dUdh/OlkQjI71faMg5VWP4VVdd2fWhyb3BK2xQdckn06A9Ki2ZOBVx0HTms3VvMjsiYo5WIPPlHnHv7ULV2BuyubOnvLJc+a5LOx4HpXo/h6PdYvI4EvzDA7Zrz3SIWa5WNQSz/dAGSa9e06xkt7SNmhWNUAyPSuWnSlOpddDLF1VGFi4szAbZFIJHbtVaJxGZAHwzt82DzirjShgSvPvVe2eSSVw8QUDqa6pX5krnlrZuxijw/daS73WiPGsZYs2nTHELZ6lSOUJ/KpovE1kLgRajFJplyePLuR8rf7rj5TW7dSGGBmCFzkYUUxrZJ4yjxq6OOUcZH5Vo4q9luRe+rInkEkBKMkiHurZB/KmxStbygj5g4+UBeKzJ/CWmyyFrezSBj1MTtGR9MGrI8NWyRgHUNRI9TdNU8sm7rSxXMkrGpOoXdIcAY53HArIufE1nGfs1kJNRu/8AnjbcgH/afoopP+EY0ppFE8ctyT/z8TM4/U1sLb29nbCOCFI4x0SNQB+QraL1bM32MXT9MuWuzqmqyJJespSOOP8A1duh6qvqT3bvWi4yP5VJNKIYjIwbCjO1Rkn8KqWl7HfqzRxSogOD5i7ST9KiTTLirFHUowYmz6Vgwwpt28ZXiujvVjmQjKleVb5hg+2e1clpUV1ZWz2d2FLwOVR1zh0/hP8AStMLO07MivC8L9i95C+lIYFJ7Uu6qeqSsml3LIcEIefQd69JuyucMVd2Ky6Lb6pqn227CzWtsP3EbjKKf4nI7k9BXUwkrtXGwdkXov8A9eue0m+jkswqkFcjjPp0rVjuVHzbv/115E6rqSuz2FTUI8qLlxaw3gKXEaTLjkSKGH0rk9X+F/hvVAzx27WMh/5aWpwP++TxXSJc9xkj0qXzf3eQCCehrSFRrYylBPc8c1X4M6rCS2m6jbXadllHlOP6Vyt54D8Tafu87R7nCcl0AcfpXvd1quVIhkCBRl2wP09KqC4eM+dO8k08hAjjXoSfuit1Wl2JVHzPDfCyMNeS2dSkrkLhhg5z6V9Q6fAYLZIgc7FCg4rn4tJkvGFxqE8YfOR5MSgg+zHmta3Edkm5ZZmA7SOSKbm73saqF48tzoIxmph+tZdlqDSyENt2qcMR2Pp9apTahePZX1t5yLeJKBG6D+A8g/XAIqo1FIxlTadjplbpgU7OT71i3+qSQm0jtwd9wjOHEZfAAHYeuRTpdQuP7NtJWQW09w6owf8A5Zk9fx9K1TMXFmweeOlNKg81m2txMbu8tJJ95iClZMfMu4Hg9uMVkT65Lbr9slnIt7TMF0pA/wBYehOPTjj/AGqGxqLOnIGMGsu+1KxtnMVzcpGx4w2ee/FWLQzJaQi4bdNsG8+9UdUwbrTyT/y3OP8Avk0XLjHUsN5E0aSxkEvjaQM5qpdW/XggHq2eTVHWb66iu7KzgDqk+8s6SKjEjGApbg+uKbqN9fLo1qwuDHfyqdyQIrmRwMkDPAHqaT1D3os47xp4pm8LzWEFrGpe4JaRWi4cAjgN2PWo9bCsiTIoVdu5RjqCOB9fWutubGHV9KtZ7qBG4S4A6hH65Fc5rds/2dypJY5K5HAzSNVK+54/4gZ0l3BSzeZ92sw3DMuNpGeua1NeDxNEu7c28qze4rT8EeGJNZ1Bby4U/YLdsu399xyF/wAaOXmZhUmoptnZ+B9OXTdDVJeLiY+Y+ewPQV1GwVXuLMSOZE+Vvaq7JeqdoINenCKtozxJzk5NyRU8R6LHqdpuXC3Mf3G/vD0NeZTRPHIVdcYOGVuxr1pbSZ+ZG/WsTxN4b+2Qm7tE/wBJQfOo/wCWg/xrDE0E1zR3O3B4pxfJPY87aFGBKqFNUJUKMea0WYoSG4Hv2p1nouoa9fiz0y3a4mIyQDgIPVj2FearnrNq1yhp14Yb5Duwueas6wzjWVugpEF2uVY9GI4JFd3YfBS7ZQ2oa3FC39y3hLY/Emul174YprNhZ28eprbvacRN5OQR6EZq1ZPczlO6PJIHBOK6Xw3biXVoTjIBzVy4+FHiS1cm2lsbxR6SmM/ka1fDnhrWdLvWe/02WLauAwIYH8RXXSlG+5lJ6aHVKKdtDMA3AJwfoeKNpX7ylfqKU811xkn1OazOR0yznhi0+1ELNYtdss6D/liV3An/AHXGPoR71sxaRJc6HBY3jbZLcjy5AN2Ch+RsHrx1BrVCgdhUqgYxir0JZWsre4hRvPmSRsgqI4hGqD2FFvpVlbXJuIbWOOU5yw7Z64HQZ9qvgYpwFPQQmAfyoxnmlAANFO4CUwgU/H6UjDigCBx7VXlBxVsiq8oxWcionC/EG2M3ha6bGWiZJB+eDXH+DvES6dYfZ+Q28kgmvR/E1v8AaNHu4P78LAV4RaymKXPtzx0rzMRDmujuoz5Wme42PiFZVyCAccnNa1xqavo1wM8lCK8YstQljwVbiteHXbiV44C3yswB968qrTa0R6lOaka7HPFCqaraaJPsaGVWV8nKk5I571dC5rBu2hra6uRlc0qjGQfoak2kClVSWxjIrJyKSKMEZNy6Fk+Uksm3ke9X449vQ9PSq9lg3EnzA56jbgn3rRQKDxUuWoRWg1FPU8E8ZpzoMk9R396k4Hp06U1244HTrS5xqBBO0Sl5AnlxjkKDnH0r0Dwz4PtIoIbzUIY7i8kAdUkGUhB6ADufevO7jMkbA8kdBXq/hbW4NSs4SZB80QUj0YVrQkmzDFQkoe6b00bovlycRjgAcD9Kpm1i34jYxOejKanvLyJEwGAwOcmsmPVIri6W3hO+Q9l5x9fSup8tzkp05ct9ixkgESjEit83+NNkIVdwPvVS+1FIXbcV80n5hnge2axb7xFDCCMjI965nq9DpjHTU1XnRLhyj8Mu4j0NXLa4P2cHdnivL5vEyG4aQy7V/hXH8zVhPHSqgiSM4H3mJreEHYiauejyTjI55pnmLu9K4BPF6HrkfXtV228UwMMlxz0zWtmZODOzaUBME9D19qyL6eKOSEjbnftU/XqKx7jxPbLEct26VnadqQ1jXIwmQsSliOxq6SbqKxM4pUpcx14Vc9axvFECmyhuVAyr7GPfB6Vpg1DqEH2rS7mDu0ZI9iORXpYqPPSaPLwdT2daMjh2X1pm2pV+dQ2fvDNG2vmL2Ps0Q7O9G3Jz3qYjg4GTjOPWqMt239nC6txksQNrdueQauN2U2kWjwfX1qVPU81XuJ1giWRduHYKpdsLz3Jp9lO1wrnCMUbG5M7H91zVpO1yXJXsXY89xx2OOKtpnBAxx17VjxM62KXwnczMQWBbKtzjZt7Vfu98P+kxIxdFKMi8llP9QatLUxcrlxXjCoxcEOQFI53fSldDznAPrVSC2eCeCKNM26/vAf7rY5H0PWr23gH9aszUjKltAbyJXlndHQnDSHhhUV9P5BiAkRDIcB3BIGPYda0Z4SzxOG2mNifqCKguYRLjDmN0O5HHJU0+buS12M5LhprRpDtRhlSxHy8d/pUMEhlRyT8yHG4LtznvirzQs8TJPIZtwwTjbx6Y7VXjg8pmYyvIzAAluwHQUX0BX0PXrDTbLw3AkdvHg7cmRiCz+5NW7jX49kaqRum4AritV1i4v9QXT9OUyzn74HRR6k1R1C3GkGF5LpprpiA5PQD0A7Ctq1Rwi+Q4o4dTa59z0+BfNjDyYOR0HSp9iAH5eT6da5bQdXVrPysMcHIwecVvw3TCQ8/Qdaxo14Tin1Ma9CcJNMsuk5QGNgD1Kt3FTQAxjLDHpzmq1reQ3SP5UyPhyjbTnaw6g1laTrEmrW7F4VgkRmVo92cc4BHsRzW3PGLucyi5aG+buIvsLAH3FVri5tScyyKsQ4we59q5g3t1d3Ej2iibyrgxeSF4AB5LP2PetTUGktr+2uo4mljAZGCjJTP8QH6Vk60nfm2L9klsXb24WG1+1RrviQf8s+eP/rVkz627yXUSRrhFBhk3ZEhIz07H0q3pZkmNzOsTxW7uCiOOSe7Y7A+lQjRbVlvIZFeW3uSG8snHl47KevvUTcpaxdrlwstGizE5dkIkyhGT7GlUPFeSR7SUmXeGXsw4NK21SgjQFR1Oeal+1Rj5c06cktJMqSb2Rh29o8Rms5jvZkO2MwgIechifX61mShjY+Y+4yxfK7Mm0sR3xXWysrIzduuKxbuRZt+BkMMZrTnjF3uKMXK6ZlRif7Oksts8SOMqSQQR+HSmyQrPHJC/KyKVI+tTNqi2ti9tOQGiGGz3XtVayuRdWcU65w65FenRq86szir0fZWa2PLLPxG2mXc1rITmJyh+oOOldFB4ygbBZ+PSuS8d6ebLxfcyKuI7oCZD256j86wo2BYrwB71zyopSdjsp1nKKueuQeJYHPD4z2z2rWttehlwrSKqtwcnof8A69eLZMY4JH0NPW+niJC3PXgqx61Ps7bF3TPVNRJiuIrtWIYttlQ87/c++Kmu7kGNWgJHlOHibOQSOcGvNU8Saj5PlSyCVMYBzyMUkfiK9PyRyAKOuW5NDiyotbHsUfiC3ltxKqyBcZZQv3KYPEVhIi/vwxz9319BXn2g+LrjSpt80BdD2Xk/nXT3HxA0h4lkTSUe6HKs6D5T69Kzk5bG0Y9kdLJq8djEqk7T1YerHkmpNAZdW1WW8Z3HloYwgPDBvX3HavLLzXJL64Ms75Yn5Y1r0rwCHFlI7dWIz9aVNNSSNqtJKk2dnJp0M0EMTGQGH/VyI5DL+NWGtYZLX7PIgkjxgq/OaRZOKcJOPeu9M8hxYlvbxWsZSJAgJ3HHc+p9aVo0yw2L8xyeOp96XcDTS+MimCTuLnC+9RPhsbgCRzyOlKWFRue3WkWolS8tbe8haG6gSaI87XGRxVK9sLa6gFvJGrRJ91ckAfTHStA859DVa4GFPOcVLkbqCIDcCC2SBUURRqEVQOgHQVzetX0Yt2IGDtOOK17tiMqCQMZ5ritbmPkkqM/TuKXMU6Ktc868RW81xqdpZW43yyyHy9o67v8ACvX9I0qHRdJt7CAfLEvzH1bua4zwRpS3+tTapPk/YjiJexZu+fYD9a9DbrXVSVtTxsRL3uUjI5ppGKeetIRW6ZyNDaT8cH1pcUVqmQ0cZ4q8NGZvtmnwBpZG2yR9ASejD+tdz4S0K28N6OtojB7iQ+ZcTY++3p9BVC9k8m1kl/ujI5pun6ufL2M25scmvNxi5ZJrqetg3KdP3uh2fmgD1PanK4IPNZEd2ojzu5praiqv1HTtXJc35TaZvlHfHNZ9xcuPlX7x6e9RrqKMmAwHGM1RuLuPzlJcDA/L3qZSLhHUuLuEYMjZLdz/ABU820UnzNz9Krx3UUs28kY42jNaEcsIjkZlztGSB0PrVQet0xy80ZjopcrHJnAycjoKTDJ99SB69qv6eYBaoRgSSfOxIz+FaUcW1S8QQ+oHf8K9KlWml72py1Kcb6GEpBGRinKcntitC8gQ4LWxRj/EvGazztErorBgh28eo7V1Qqqbsc8qbSuPyCcY/GjAHWkDUpPU1qjMbig0uaQ0wGMKhdanPSmEAis5FxMXUYt8WCOvFeXeANPhPju+sbmNXjWGZGQj7wzXrl4uYj61w/haxEPxK1iQKMfZg4Pcbv8A9VcVRamz+E5bxV4Xk8L6mFhLSafP80DsPunuh96yraQJewDIzvHFe+zWsF5A0FzDHNCwwUcZFeU+LfB1v4f1/Tbqy3mxupNvltz5TDtn0Ncdano2bYavqovcuotSquOnWkjWp1U4rwHM96xHt4oCtnFTbc+9GzggdcdKxlM0USnaOZjJ80ZA+6QMED0NX0BPTg1U05N/mFnWQjA+5tK/WtNUJHTmlUlaVkVCOhVeNzyT9P8A69G0kZzzV8RL6fnUbxDHFZObWpaiZjgjrVS2vrrTJmaGRhGWydvVT6itZ4vzrPngxITjrzWtGpYtw0O80+80zVrNLrUtWbfgb4YztB/rzRfeMNI0uJrbT0RYz18sdfqe9ectaoykAbDn7wpn2L5zhtwL5APZfT/69dKqX0ucf1ZXu9TZvfFnn7hHBjP8R4rnru+uLpSMADOOKsR2eLlmKPjO5GDfJjsCPWoVCpE8i5BC4kOMfNn9a2jUS2FKm3uZv2VQrPLII1z/AB8ZpyPZIMm7Q/QUusMzWcQY5ZiTWFG3ykdBnkV10m5RuctRKLsb63ViG/1/04NTNcRKRhsg9Mc1zysFPQGrCXBZxDGhLn+BBkn8BWqVzLmsbfnRuvH611/gm12x3N2Tw+EUfzrm9O8IeJr9A9vo9wFYZDTYjH616Pp2jXelaXBBLbOpRB5mOQG7810YeCU7s48ZWvT5YlsdOlK00dtG08zBI4xuZiOgHWog4Heq2rnzNDv0HJMDYH4V2VXaLZwUo3kkcopikBeAsYWYtHuGDtJ4zTttVdElE9iV/iQ4/A1fK4r5OppJo+1pu8UQgYIrPit3V4sL+7Mp80Htjow+oOK1CvNMIpRlYtxuVEtibRIZDyp+Vh1GD8pqxDHMCxknMrE9kCAfQU7HengcdMVopMTS3CO3gWczeUhkzkMR39frVxDyDnBqug5xVhSBVqRnJJE/frmlbJzz+NMU8DP/AOqnnoa0TMWRMuSQeuelRMMHHYVZIHPvUBGSeMigRA657ZzVdk4q02QeahagDuY/7K8OafM0C4djl3c5Zj7mvOLzVDqmr+buJjQ55rM1fxDcagzKGIXsKXSIyXCZy3H41WKk1DUzwtP3rs77QmcR+buIHQAd66u0n2RjB+bkk9celc7pqLFaIhHQZPua1YiygMPTgV4lKtyPQ6MRBTIvImstenubB0W4uQJ2t+Qsyjh+em7uDRpLTta2V7GrISrxzpIu1iucrx2IOfzqdrpTIhdR8gIUjqueuKa8m5gQDtHH1+tbVMfG2m5xRwzT1L8enW00zlHkiDkGZYWKrIfUj/CtjyhIoQMVVeB7+1ZenSDHYkce9XJ5GQ5RhnHQ9zXbSqp0+aWpzVINSsi+oZY9pI3e1VriUqNuQrHjNZgvJ3kCsdhHU1Y2GSBvNUFv4S3as/rftYtQQvY8ruxsYk8k8ZbPzVScnzijnjOV4wK0I/3a4/rSOiM+GAz2rB03KK1NoySZSSeQoUyTzimSxukbluO31qZolgO5V59c0kMu+fluD0Bop3T5ZM1e10cV4y0+5ube0e3yJDIIn291b/A1sQJFbW8UEf3IlCL+FX9UTczIMjjOfftWcLeXYDtODX0uBfu27HkYxu6XQ4T4nLH5Gnz8b0kZPqCM4rhIwMjivQviBZSXVnaReS+1JstNj5Uz/jXnOy75jjjKlTgs/GK2qr3tCcO/d1JJp9g28bj0AqoWG4szZfHbmp49O2sXkkZ2PXPentEqj5Vx7VCN1qZsmSScECq0mM9KuzsADkfrWe5PpitCJCLPJG4KyMOexrfiaaRR+9c57Zrm2HIrr9Ng82ONjnkdqipsjfCNuTNHRrTMu4gluxPNe5+HLQ2OmQoR8xG5jXn/AIR0Tz7lZZFzDGcsemT2Ar1KIBVx39KxgtbnfXn7vKjQRgAPWnjp0qsmMZI/CpFcZ9u/vWtzz5LUkDf/AKqU8/Wowen6U7dlMcAU7kjHYjgr+NRMzHkcU+Rs8Hp3qA4G5unp70jSKGs+OKqTSAZb2wanZzkkfhVWRd5K7gT1IFZyZ0Qiupn3blgdxJxzkCuI10r5LbTnOec4rsbwkRyE8ZOM56VwviJyhYbRxxwaS3NZL3S/4AkCaNdZGM3JOc9eK6kzrXI+Brdm0ed1JIac8kYrpTbPXoQ+E+crr94yYzLTfOWojbPTTbtmtIswaJvOFIZVqLyGo8g9zWqZmZ/iC6CaWwHVjiuEt9YuLdxySB2Pauo8Xv5Gmomfm3gn2rhTliSDXBiWnM9bBK1M62Lxc3lY2sCPxqB/FkjscAnFco+cnkjFVJ7t7QEgj6tXMo3OpySOzbxZcLwATSN4uLMFljbjvmvPG8QXgGQIsehWlGuXNyoBjiU55Ip+xZCrxPXNO8URMFG4Fu+a6GLVvMUOjbT6A5zXhtvqSsN/lMjg4Ow5FatprMqPmGYFu4Jwah0mjaM4yPbYEnaNjaYZhyICefwNU08RCKdop98MqHlHGCK83tfGd7aOGkV2A7HpXUf8J7o2pQR/2jCJXTkM4+Zfx9KOeSRXs/mdlceMotM0Se/1CXNvHykfUyP2UVyfgjV5tTsLua4P797lpn9t3OPwrzXxL4hj1G+YxksoP7tB0Suu+GrEW12CeSVOa9HB8z96Rw4lRjpE9LRs4pxPeoIz0+lSg969A4B2aM5pPwpe9IBOhpGFLxS4NZSLRSuFyh4rA0u38nXtRvFx/qI429hknNdJKvycc1hxxEay6A486LGPXac1yVHrc2+yaiXinFVdajt9Q0iWKcEhCJUIPIYdDT/sZFR6jbNHpVw+eiZrmrP3GTSXvr1ONiyRirAFRRjBqyo47V8pKZ9UkN207acZAye2RTgpNUbA3Ui3nmyAggbBuBCfjWaTkmyua2hZsx5vnOFjAL5BjB+Y9yc1fROffHeq9jE0VuFZ1cZyrJ0Iq6vAH61nVn77NIL3Q2HHXmo2Xrx0qYc8n8Ka355rJzbNEio6ZB9KqzRZXOORV5u1RMAASeg5NXCTKdrGYU9qaygEDvnivQNG8CRXNot5qjy/vBuS2jO3APTJ9a0ZvA2ioBssJSfec16UMPJq7POlj6SlyrU8sYDvx9TUMjpg73QD3avWV8JeH7f95JpUbf77FhV0aFo4iIg0y0RhzzEDzWiw9t2Zyxqb0ieCX9nd6jeQ29haTXLbCQIULCrmnfC/xPqEm9rVLCLPzPdNj8lHJr2mG4NkqQnCW7HChQFCH04rQgnMjsjH506+4Nd1GaiuVI4a05SdzzvS/g1psYV9U1S4u2HWOBfKT8+TXeaV4e0jQYwml6fb2xHVlUFj9Seaveci5XcOP5VHJOowARzXWpOxyNX3JWl+cbiSD680M5f6dDVP7QgyoYH0pTeKgO/7uO1S3pqWo9jntbhMUnnKuDnD46H0NZm7ehRvuOCp+h4q/rWqRSXEdvFiSWZ9oUdx1pq2o6cVvhZudNpmGJhyTTXU810QvYarc2E+QyZQ/Vf/AKxroSPlGORVfxlYHT9WsNYiz5cjeVP9R0P4jI/CpYn3RjAHGeB0rxsbT5ah9HgaqqUwI5ppGRzTz1pMVyHdYZinL1opRVJisOUdKmXHFQipVJ54rRMykiwD7nNSA4HU1Ch9iMVIDwD6VqmYyQMc9e9QsB371MenP/6qiamQQOOKhYfnU7nFV2PPWgaOBiPmyAnpjiut0C2El0gIyM81yun4kwe1eg+FII2Ls33gOBWONk0mh0LJHUQQrF7gDirP2gmMLtx796rDcF3EcGpFLY6183UqNOyN5Lm1Ypct7VNH0GCPpUW3BGakRATzmsYt30JlaxftS27J4+lX5yogD7cknue9VbNXUgbehzzVyQ71XgAdenOa9/DpqlqebVfvlYOhUMEG7OCaakhJZnyWz09KsSRl1B6EDoKjTyoDkklutHJJNX2BNNDHmEGBy3tSfbFKsdh4pJdrxlkyrP261LaxQwr82N2OaXLUc7RehXuqN2tQiQSMHOcY9aseTFH84TntUM1zEp5Ab/dqCe9VVTqTjp6V0wqU6fxE8spMr3oMl3wMjHevJvGFxqeh+JZRZX91b29yokCK/wApPQ49K9W80yHI4J4zXI+PtJOoaVBNGhNxbyDb6kHg124KunJtPcivSVldbFrw/fQLY2G51mupCCZpow8gPruNZPjLQBcifVLQySlZT9o3j8iMV0Gk6JHpVhZtIA0u0JjuC1dPosMB08ptWSPLBcjO5c/rXdBvn1ZzzUYxvFHzxIhTPT86oThz3Ar1Hxz4TSyZ76zg22zHLIP4D/hXmU6kMQFFbtWJi01dGZJCCS2SaoSr89aUvHU4+lZ82SdvNUiJlbG4k16X4PsRqEUDkDy1UbhXnbwMiKcfK3Q16x8NkzoaODzvIqamxrhdJM9N0yCO3hEaD5QoAAGMVswnCjnLe9ZNm22MdSc4+hrSikKuMqCfWsrnXJFgNnJJp6/d5+lQqx6jpUqsSM4xjtTRi0SK6j5cHBqTIUZ59/eqwbBAPNK0uM88iquQ4Dm79v61CX2DcfwFIsgZd3UZ6Go3YMRgDHek5GkYjXbtkn1FU2IRi3PPb/Gp3dSoyeM1TmkCk84HY1nJnTTjczryRTCzGUBwc4x1rhdfMeH2kY7DHOfeup1CXlv7xHOOlcZrEjMXY9T1pReprUhaJ0vgJ0Phtguci4bdn1rp9y+lct4EP/FOdsec2AK6U16MdkfMVtajHsRngUwkUlIeRVoxaDIFNLDFBFNNaIzZxPihhcXNxEc7icr9BxiuPOdnNdr4ihKalIOB5mJEP86429UwyspUj2PavOqp8zPZoNOCsZ9xc7FPHIrCune4bLdM9K0533OQKn0bw7f+Irw22nwhynMkrNtSMerGiCtqyaj6HPSL8uRUcBw5BFeyWfwVSWMG913nutvBkD8Sanb4GaeU3Qa7ch/V4AR/OtFOPcwcXe6R5LC2JcHowyKneMMPWvQbj4K3sMqlNftmAOBugYH+dWj8G5/JBTX0MuO9sdv86TnHuXrvY8uLzx8JM4/HimSNcOMNKxH1xXban8L/ABRpqGSO3gv4h3tXy3/fJ5rlZbd7dzHdRSQSZxtlQqf1q4crYOUrFKGD5hxXrXw7tmjsbiQjAZgo/CuG0fRZ9SuAkCbj3bsBXsGj6dHpthFbJ91B19T3rupRtqc8+xrxA8c9amB5qBQQBjrUo781tcyH8CnCmDng9qdSuAp9aCahuLjyYy1Qreh+hrORcWiw9YV6Tb39vcgZ2SAEeoPB/nWtLdoiqzMOTjisnVws9rIFPJU4wec4rjquyOiGuhuYI/Oq2rkf2Ld+pTFTWTtLp9vI/wB9o1LfXFV9aH/EmuMdSK467/dy9CaS/eL1OJjWpwuajjGasBeBmvj5PU+oixrACNyegU5+mKoWSQG2uxGz7SV3B+cemMVpOrGFwq5YqQo96r2peK2kacyRyPLhTCRuJ/2fetaT91g3qizZ4eAuAMs7FsAgZz2B6VbAxzioLNR9ljKuZBgnfjG7nqR61ZAzXLVfvM1g9BpP/wCukIBHTnHSpNnPSkZSKz5irkBXvgVGMebGHwFMi7vpmp36f1qtIu4Ec9K0g7MctVY9WN8gQNn5egqX7ejIRjkeorzLTPEchi+xXZIdeA3qKtx3PiHVWJ0+ALA2QJXbA4r3qVeWyPHlhYrVs7l71Dj0zgiqhnWJxGPuMPlz2Ga59LWbTLfzNU1BXYdY4xx+JrJk8UwTXhYyY2/dHQADpWk58wKkt1sdBqlyi218hA+5vFWbW5cyQnPWEbj9K4e/vZNXO2GQKpI3vnjb7e9O1PxRFptg8FqfMupBtGO31qqasjOcb6HWNqQeSQq/yBioNQzaxGiAs/B6DuRXmcniGaK2jhjydowzE9T3rKuNYvLiXe0vToB2roimQ4I9SudchRN7Pj3Brm9R8YMpKxvXES3txMfmdm9h0FRAbjliM+ma05b7jjaJ1vhu5n1TxPDM7ZWFWc/iMV3wlK1zHgnTvs2lvduMPcHj2UV0jDFd1GHJCx5uKq89X0INWtE1fSLixcf61TsPo45U/nXF6TcNNaI0hw+MMv8AdI4Nd0nDZrjb+2Gm6/cIFxFM4kj/AOBD5v1H61wZjTvDmPQyqrapydy0TxTO9Lnimlq8Wx9KLmgEUzNKDRYlokWpQQMcVXBqQGtEZyRYU4walDZ5yeKrKffHrUqscdelaJmMkPPA5/OmMc9acSD/APrqEntVkWGk55qvJyT0qR27VXdsUxpHCaewjnVSQFblRXqmi2G6yt2XG/HzE+leT2EvmLlcB+oJGcV7R4dZbjT7dsnmMEN/n+VLGU2zlo1bIvRKzIEK/d6kHIqWOMO+OQPpVtLUrkcFT6Vat7ItIGUt9TzXiPBOUzolXSRXS2GQcHGO561NbRsLgkRjA/vVda1wjbsEAc81JburR7RgHqK3jhVGXY5JVrrQc5URjcwB74qpIxk+6Rjsc01hsDAkt9agMqoAp6nsBV1K3RihTLTzGOPAwfU1UaUtgY6nk0wSFw5J47AUYzjjtWMqrntsaxgkTNII0AXBINU7h2E23dhepFSggo39aqzncy/3vWufE1XyaM1px1GhipPOBUiKsjZLVBjHHTFPiwrDI61xUqj57M3a0uWxCuRtJ47Uy/tVurRo34JGPoexp8SndnoBzirbruTdjHtX0eBascNfY8w0/WdZutQlt7ghUs2ZZZWOFQDqxPrjoK9E0KZ30iJxj58svbap6V5z4r0+Y+KLSFWZra9f/UDgFwfmJ9sV6PHN5Uaolr5ijhcnavHtXsrdM45NuNhbu2uLuJlaaMowwwIzxXj3i7wu2kXJKSh4X5BUYx7GvaopBcqTKwCrwyR8AfjWbrUcV1ZSWpt42icd+3vmt0Yq6Z85XEZjY+lUFzJLu7DpW5r9k9nfSWq4YZwrL0YeorPEAiQAVogkrvQdYzwhmtbof6NNwx7of7wr03wHZvpunzWszq2ybcjocrIpHUH0ryeQbeQK9C+HN5JJZXcTsWEMi7Qf4Qc1nUbSN8OvfPVIJVKkEkHvzxgVpRS/u1Xq/UD1Fc7BMRk5z2J96147hIlEisMgYUHn8K51LU9CVN20LwlbaAeOcc1K8+1yAcj61mPODhgCCeTu7GmrLuUYOeewquYlUb6mj5wBOTweuOaa1wAB8wzjj3qgsoBLlgMdjTJpSV5xnHajm0GqOppRz7gozgH2pZH24OTxxVCNyEBz16ZppmJ3Me3rS5gdLXQmlc7ePXjFUbiUgdyPai4mC4AJOfWqk8jLglxsxzUt6nTCnZGTfvuyqFeeM561yOourRSDcOuB65rortA7j5lCkd+lcvqC5LMOSvcUQ3FWXu2Ot8BZPh05A4nYV05Ncx4BDDw/KWHBuGK/kK6f8K9KGyPk66/eMQ803mnH6UhJ7VojFjaQ0p60GtEQ0Y+u2DXaWkkaFninGQP7rcGsjxd4UlNml3axl3jOyRUHJHY4rtrOFHlEsjcRnKr6mpbqYxY55xxXBiJrnsj0cKpch5l4f+HEly6XOus9vB1W1jP7yT3Y/wAIrtYRa2ci2NnBHDbx4IgjXC4Hqe5qUXhyCTgHqazLq/trW8Ry4DbTWDk2jpjHW51kF6zDpgnrV1Zk2Zz26YriLbxBDMSVccYHFX49aCqQSOajUOU25pt1xjP3cAe+atiZV69BxXIHWoxdEFupBB/Cr66n5yZXt3FRdmvJojecCVVVXPmOdqH09zTv7JsptyzxJOvQ+eobP51iQXxZ0jlfy5FOUcjIz70+e41K0UuLZ5ouvmQ/MK3pySZnUpt6XNSHwlpQdlsbOK3Y/eEHyAmmTaHNbK+UkGwZy2MGudfxSsIbf5iMBjkEVU1H4gxaXZ+VPPLNcTYUQg5KL3Y110sReSijnqYZxTkb6HOCO/NTLWdZXP2hQVjdEKgqzdxV/dkYFemcBDc3qW+ASPYZqnHrlvJP5QkDMDgr3FR6tZfbbaSNZNkhHyuP4TXk9nbatD4viKb5ir5eVQdpHfihkOR7JeuzWxZRkYJIHpXJJ4psriaa2imCyxfeVuD+FdRJdpZ2TSyYAUZwa8qn8W+Hjqz3NzprpL0Zoj/OsZuxaO50u/8Atcl3CTv8sBgewrPGsNcXxt2Xa+GBH9aZJI2m+HV1TwxCt9bTPuuUkPzlfb0xXJW2uXOoazayQW/kAybXRuSwz0riqanRB2PY9BmF1oNpKCDmPB+opNaO3SZs+wqHwzGsNjcWyElYpiwHoG5xUviHC6RJ7sv864cQ/wB1L0NKStVXqchEAP5VYGahSpwe9fJSPo0NuV8y1lTnlD0GT+VZ9ugttNUEysDNk+UAHPH6VcvWIspimCdvQmqckypo1s4cxEuNpRvmB9FJ7/Wt6N+VLzJmzYtiht4yudhUFc9fxqyAMc1HGTgcknHtUq+3NcM3eTNo7Cd/WgjPTqaU+lNxxmoLuRlcmoZFweSB9Tiui0HQjq8jySsyWkR2tt4Lt6D0xXXJ4b0i2QY0qFuOr/Mf1r0aGCnOPM9DjrY+FOXKldnkE9skje4PDKeRQL/WbaPyra6Up/3ya9QvfDehXSkNYpBIejRfIw+lc9c+AZSxay1JGT+7OnP5j/CulUakPhdyI4ynL4lY88uIdXu2LTTKT7vVC806e0tZLiWVCFI+UZ5Nd5deEtZtc/uYpgB1jfn8jXNeItP1KKxSNtOuwTINxEJIAHuK0pSq86i0VKcJRumcn9unQlVdk+hqpJNJtPztz3q09pcEn/RZ85/54t/hUFxBLEm6SCZBjJLRkf0r0Yo5eZGdKSSHyePU1NDcsq4Jz70wKrDIIIz2NMZNh64z0FdCRi2XvOz+PpV3T4Rc3kELHaJJApP1NZMUmO1dF4TtTfeI7VT9yMmVuew/+vWsI3diKkuWLZ6pFGkEawxrtSMBVHoKe9Limsa9CR5N76jV61j+KLcvZRXScvCxU8dm/wACK1weaS6gF3ZzW7AESIRz+lc1aHPBxOnD1OSrGXY5FJNyK394ZpSaqWp2RmLPMbFCDU5PtXzzhZn2sbNJofuxSbqjJ70m70INLlKsThhUgbvUBNOV+2aaRMoloMPXFPV/XvVdD68mp0G8+lWjJwH8c+lNPSnbc/4U1xt75zVozcCu4JqAnHbpU7H5iOemelVZGYSHsB2qkHIedW0j28/ycMDlfqK9S8G6uhSJpmWNLr7kIHCEdcemTXlN6THGpX75Py12fhK9UqBu5k/1agciQdge2a7MRC8bo8GjPWzPZ7aTfvUgAAZKjritO2jWMIQznPGD2Fc5pF4ZrJJpH2MeGBOeR1FbLOixM4IVepOe9edHTVnTNXdi++1QIhkiqMlyjO2xcKvH4iltr3eoyN2TyQKz7m5ZpiAMZJrjxVdKN4sqlSfNZjpJQzHaWOentVZ3LDJJ3DimvID0fioGkz9RXiVKjZ3wpl2CTaDwfahpcOTk++PWqyuTxnjvUo7E8eg70RquyihOOpL5Ds/3iMjJNNlGGIBxt6e9KkzuxwOAKiLHDHrjtV1HDl06kxTvqMPB65p4A3DcenSouCPen9O+T2rji7M1a0NG2QuNzYyOwq4VBGB6VRtRJ5ZA/hPX+9VwXCsuGIBFfTYKSUE2efWTb0OY8W2sv2E3dtGHuLYmREP8XqPyrj9K8bPqbrHHbOSRzsOMfU9q9OvI1miP0wa8+vfCcbg3dgwtLnpNGo+SQjo2Oxr28OvaJpdDjqVPZtX6nR2+rusax5UyAcjoqf59ar6hf20UO+5ke5fOFhjU/OT0GO9YNpcwWchtppHEqHmMLl2z3966Pw/HFfazHIkakWxyQvKxH3bu5/StrWFdWuhH8Bwa3ZrNqylNRYkqYhkQLjiP0IFeXeJ/Cd94fuTHcx5jb7ki9GFfRgnAXABYkk/LzWbqdlDqdm9vdWvmQsMFW7fStU0lZmEZNO/Q+WJoyM8V1nw5dlvNRjHQxo2PcE1Z8Z+DbjQrhpFQvZufkkBzj2PvWd4HYxa/PGeN8B/Q1E37rO2gk5po9St3PXOBg8+9XRLlgduPXFZVpIuwZJxn8q0FYNkDp2NcbZ7kY6FssVVVDAjrSxvtOSxOMYqIyEx7cAjse4pI8nAzj2NUmTyaE7EoTkgt/d9KJsqMf3qRiVxgZB469fpTXl2pu3DcvIB9P8aohDizBC25cqcAZ5NNMm+Hgbc/ePU5qMsAVY/L36VEr7d3zAnPQ+lBooDpsOEGG+Xlqo3Dj5uv+NW5QWkbBOAOcdqo3Drg5GBWcjWK0Mi7IGGA5OcDPArm70A5BOF9PWujvJcMVjPHQ5GRXP6gU2nqT6e9VDcwrrQ6/wAHKV8OQ47u5/WugG6s7wkFPhm0J64IP51t4XFelHZHx9b+Iyt81Ic4q0AtIQp9K0iZFMk5phY+lXCi0wxjNaIiRmi7Md1Ih4FJd3vAI9etZ/ii3uLe3GoWiljGMTKP7vr+FcqdeE1vw5yR+VedWhabPWw81KkrGtqWtfZ325wB0xXJ6petfS7gx9s1Vur9pZD5hP4c1X85D91HJ/IUKI5TsX7S9e0jKgNuPU5p7avcdpFU+7Vjz3ciqQCE+nWsa7xtLdz6mq5EZ+1aOtbXXj5eaI8/3q1bHxhJGB8oYHupry4pxz1qeLdsO0EEDPBxTdFMI4h31PZIvGdtIP3iFcfrV9PiFa2g3x7jgfwtg14dHNcqQVmcA+9TfarnOPNJ/Co+reZr9ajs0era18UfOtnWKBRkEb3GTXlj38t/qYlOdoPAzVd9ztukct9av6TCJ7pBwkO4bpD0ArpoUVB3OWvXclZaI9v0C7I8O2kspwREPekm1+JAxWRSQOB61BvtpvDjwWl0kW2Lasm4YX0NecHTPEmpzNbxWrPIfleRcBcdjmvRb7Hnt2OnsfHs11qnkyRxvA5xweVrv7O3giiUoiqG6HFeceH/AIcz2c0dzfzKGU5MSc4rZ8Q+M49GuUgSMP8A3yTjaKTbS1HGzZs+KNLl1TSpLeJ9pJ6ivD/+Ea1eTUGt1tXkkLn5gOD716DF8ULPzBG0MrAnk9K9B05re6gju4hxIuQ2MZFZScZFpPoZ3hHQToWkC1Y5zyV9653xo1hoV8uoRQqtywILKPXpXZ3+onT50JV3jkOM9lrkviLoE+tWEV7Z/NLEM+WP4lrjqK5vHRGh4J1ae6hRzhjNEWP1U9fyNdD4g50XfjhmFcV4DWXTEsYrg7dxZcE+o6V3OvMD4ajHHLCvOxLtSkdVHWrFnIJwtS1EvFS18qz3kxk0iRwPLJK0SRruZwcEAVQt767lml+99jaHzYLkYKyH+6QRV658r7JN56b4SmJE9QayYYLdrhpIpJ2dohDBC2FjXtnr1xXVh1Dkd9zKbd0dHExKKTxlQeO3FTgjHPNV1IPC9BxUy9K86e50J6D93FNzt5/KlpjZwahblJnY+Hb2K30m2jDgHBJGerZ5rcm1FdgG4V4zqN1LYXKyO7/YZGHm7DzG3r+NdXp+n2GqwKdO8QzogHCvh8V7+HqzUFbY86rQp892dr9pilAQ45/SoYrsglT2PFY0VtBpK77rVHuWHQBQoqEalC7tNGwEZOMmtKlRtqxKpR1tsbtzdcrnp3qHTL1n3qCQFcoeaxZNWt1PnyMBHGCTk/rUGm6xbvAsoOzzXMgXvjsaVN63BxVrWOve44yGqu04lTa4DKfUA5rGbV4nOQ/fj0xVc6hukjVDnHORXVCTbMfZmV4n8EaPq0bypEljec7Z7dQBn/aXoRXjOr6Pf6HdeTepy4zHKpykg9VP9K97vblWt5MsDgjr9OlcdexWmp297p13lrYyHY/UxN2Za6ac3sxOOh5RGx4Gc16P4Bs2hsJ71gP37BUPfA6/rXnt5ZTabezWk4xLEcE9iOxHsa9q0OCO30KwjTG0QL+ZGa76Cu7nFiZ2jYvx5xzTyuRSAqOlPDiumRxIrtkdqAxqfK96YChuFiBG7qfYVz1JKK5pG0IOb5YnIXlqw1maC3hLyOQ21Bk81o23hm9mZVuJY7bJ4UfO/wCnFdRE6IG8tAuerdz+NLbXqJNKXxuIwPp7V4jUZzbR9LDE1IU1HqiOw8IaVGiPMr3LliMytwMewq7qHg3TbqAtDCLWYfdeIY/Md6q2WuwrcSW7MMh96e/YiugfUl2YyAK35YWOdzr810zya6tZbO5ktp12yxHDensRUAGCa3PGNxDJrMMiEbjEQ30zxWCr5I9R6d64W7PQ+hoJzpqUtydTyO1XrcZPr9Koxg8d/wClWYpOcFSMHjmlcqUEaBUHGFHFQyRDrnjrR5oOSDt9MU2WTKYzWiZgoFNh8xJOB0qvIvzZPYY+lXCuSPXH51DLH1z1qx8p53qWjX1lMn2y3eMKOpHH51JokzW94EDgBvmQ56OOlewyAOhRwGU8FWGQa5bVvBVjebpbE/Y7kcjHKE+47V7M6V1ZHxUK1nqWdH1xlk2iMQ7xuVe5P8VdSdSecIySExkfd9DXmKRXun3zwvtS6Iz/AHsHuR9RXa6bdRyWiSxSK2VH3eAa+bxsJK6R72GcZJM6S2vG8wqcDApjytI24moIJUZs+X973p5OHK5GR6V8/VcrWud8Yq90PHNDKBSAjrTshjXMUCk5yKkyQd3cU1RTwAeM0r9iJDlkKndUbncSc4zzUphwisSCGGetGzHSrlzJWZCa3RFt96kjcJ1GaUgUwrUKVndDbuXEujwN+G9acH3kvgccZqkRipYpQvBB5613UMXJu02ZSppaokkmZH+cEK1ZtwzRXLIRwa2QodMMcisrVYDEwkTnsfwr6bL6jjNSvoebi6anBq2pjapplvqiDzFxMBhZVOGA9M+lR6JrkFpGbGJBALfKMvQ7u/FXwQTmsvVdEhv5RcxMYLxRjzU/iHow7/WvoK1Ln1W55FCvyaS2OpttYMwbDttB78VoW9w7sqBXctzkDgfjXl6+J7nR7sW2oW4iYfcKDIYeoNdNpvi1rpWeNHcdM9FUfX1rhd09T0UlJXR113aw31q9vdoskb8MmM15NeeFZ/DXiiKdFZrGUOqSkdOOhr0i01iW8U+SM/3n6Kv40mttv0i7DnJELMGb1xUud9DSknCSaOSspt64XpjrWpGwwcferC01tkaD2Ga2IzxmsHufQU9UWg569fxpR97OMe1RgjP/ANalLjnPIHT3potosqRjec8jHA9ak3eW6quGyp796oeYMsQu49KsIdoBIB4HHp61omZSgOmyEyBzjccn+lVQ/wA44IyOafNLlD8wBY8+o+tV2Y7sjuKUjSnF21LCTuhYqOemazJ23OxY5GeKsu7KMMcHrVCdg2ORyfyNRI1UUlczrndtz1BPfisK8A2scHit26jYFwwPfnHBNYd4jCMmnE5K2x3PhR2Phm0BP3dwH51s5PrWR4XTb4dtRnOct+ZrWzivSjsj4+sv3jFJI70m403OaWtImNg3H1pMn1ooNaIliMc8Hkeh6VwXiXwi0Je+0xN0fWS3A5X3X29q7smjPOacoKasx06koO6PES49M1EzysMKBGPWvUNc8J2uplri2K2111zj5H+o7V57qOn3OnXRt7mEpKOcZ4YeoPeuWVNxOuNRTMiRFjUs5yB3NUGRpW3EYHYVqyWrSnc/QdFqFoMYqUNoy3iwM0yL92GI6itB4hk1VaPDfXirTItYcxU25daoRO/mAZznrWnbwHyjG3U1p6P4YmuZjOykwINx/wBrHaqSuyZuxROjXVzYvcRofJj5YjuPaoLb7SWFvbdSc46/pXqmlKkumNHJCiI42rHjgLj9as2WgWFiu61too2xkkDJP51vGKMG5PY4/QdHnuLO4tbt54IJQPNI6/8A6q63TNbsdDtY7BnJhiO0zOOOelSa0hstFuJUBJC5yK8sv9Ymv/3PSBOijnPua1c1HYz5Xuz32yvYb62D27LIjDqK8b8fmYeLJobhsxoFwVGBg9PrXY/DRZYbKWNpGaJgGHHC+wrotb0XR9SKT6jCrunRs4OKbV1qO/Y8Ov8ARprVAQ0bEjLKrZKnsDXvHhqA2fhXT12HzBACwGeTWfY6L4dgiEEVqpVju2t8xP411kao0G1RtUjGPas5JLYqN+p5d4t8X3FhfYtsFQwXd1+vFdn4f1mPXdDS8GMspVgOxFcf4m8A3F/qUjWsjLGD+6dznk9c+3vW14I8O3WiaVPb3cwMrSFtqnhPpXNNaG0XqULjUY4NQtnRl/d3Klh3Vc4rqdVm3aBCM5/ekCvJXM0fi2e3un+9MYi3oCeDXpkkpfwzbhj8yzMpPuK8vGK1KVzroa1IlFetSDnimKBkYp9fKM9u4yeZba3kuJAxSNdxC9TXNWl9dXupapNIUaAxwAKq8IxYbQPfrXSXdsl5ZT2shISZNjFeo+lZ1l4dWzlbF/NJE7o0kbIo3lPu5Pau/C1KMKcuZ6sxqqTkrbG//G3HG41IoqMZ5561Kp556V5UtzqT0FprDI+lP/UetNapRVypOikHcoZSNrK3QiucufD08MnnaVcmEg58pzj8jXUEBhg1XZdnBxj1rso1509hSipbnLzan4ith/pFnI+O+Nw/MVTn8Yamw2yxMgAxjbiuyLnscfSpAxZcHDD/AGgDXYsdFfFAwlRb2keZXeu3t98ss52d1zjIqe31u5R8l5GGMde3pXf3ltZy28huLWCRUQnmMCvM7wCFd8YAHXbXo4XEU66so2OWrSnDVs6KLxZLuAYkAdMVoW3jJIC27cwPX8q45zGu1hyGGRS7FYEKBnHPPIrrUYsxcpI6XUPFr3AKxkgMcmq1lrLx2zhjl3cn6CsAKAec/WnY568VsoJLQl1L7m5q8CazYfakGbm1XBH9+P0/Cum8Faq97pItHOZLUBc+qHpXGWN2YZSwPAHQ10ngK2Ky392ARHxGnvzk10UH71jnxMU4XZ25PFN3Gk3U1mCqWJwBya6pM8+OrHPMYwOeT0FUILhReTOzchwp568VRu9SH2pi3CqOB6CuZvNWYXUgySrEdOK8qvJ1XZbHr4ekqcbvc73+0USMndzUH26CRy0pAUcZNcC+sydFz+dVXvLqU8vgHtmslSsdammej3PiDTbQZUhnHOe9ZN14x3KwRsZHHtXEAOzbfvt/L61aitghDSNub0xwKznZbs9DC0Zzei0NT7bJdSNNLkseBnsO1WYZO/esxDtFWo2zjJxjvXI1qe8oqMbI2onAw2R+VTkjGeg6Gs2KQkYzn8OlSm43xkdh6U0rmHKWwfm46U9TvY5JP171VjYY4PPpVnd3C/8A1q0SJkrEgUZA96HhRgR37VJnK8H9MVC8gVjnp7VoomDbNdzVW6vYLC0lu7lwsMSlmP8ASpy2RXlnxC8QPd3n9kwMRBA373B4dv8A61e4fBGfa+IbjVfEE91OcPKS0adhjoK7PR7wo/zOAkuDGjHkev0FeSwu0UqyJncpyK7eDUF8mC78x1RgS4AyCR2P9K8vHUebVdT2MDVtGz6HplvcE4G/OavROx5JHNc3p84kjjk7kZI9K3bd9wOOD6V8fiKdmz3oNF0c96kHAqCNucGpxx0rjkjRjlODjtUqYLc1BnPFOViKhozauW0Axndg+lIWPbk1BkjnJp4YjB557Uasy5bEgy5wB0Han/ZnIOATU9p5bK2DgjrWnCFWEHo1dtDBqors56lZw2MkWj96cbBzna3ArVXbIMim+U6uGXgA84rqjgqa6GX1iRkxRyoQDxTbsb7ck4+U5rZmCo4G05Paq91AiqcDg16eGpqn7qZnUqcxyQ4Zl/umnjpTr6H7PPuHCtwfY9qhDivrMNPnpqR8/XgozaMPxXpP23SZZYojJLDh1UdeOuK5TSvFkESoksCrGOyg4H4V6QJMHIOD7Vwfi3wd5rSalpKfMctNbLxk9yv+FTXpc2qNKFbl91nU6Z4rs71FAuFjA+6hGMfhXRw3EV5Y3IhYuXgcGR+ex4A7V87pKY2yoIPvXX+F9UvF3eZO4t+hVDgt7Z7V506bWp6tOcZI6TTX/wBHTr90VswNke1c/ZShUAC8c1rRSjjkDjtWckfQUdjS3DcCpOB3NLv4bJ4PUmqSSL+B7mpdwHfPtSOnlui0WAxhtwxgDHSnSOSDzkAYyeRmqjNjoecc+1TiTcoQvlVGFA6mrIlGwszxBF2jLY6nqap78uueM96lZ1dc9xgsSP0qschvlHXsalmtNWWo+4kwCEzx/e5NUJZTtH94enanNJhsjLL71VlkV88gY9KVgasrEU0z5JLnpnn1rFunyCoOR0q/OTg46DvWZcdDnirRw1tj0Tw2+7w/ZnttIrTNZHhwhfD9oP8AZJ/WtQyKK747I+Oq/Gx1JnnrTfNWk3rmrTMh+6m0m9aQyLWqM2OppHNG8UbxVoQDk1Q1fSbfV7PyZvldeY5QOUP+FXgwzSn5hxTeqswWjujxrUbGfTr6S1nX94h6g8Eeo9qoOrE4J/CvV/EOiRazbYzsuYwfKf8AofavMbqzns7h4biMpIvVTXJODizrhNSRnOm3kDPPeq8ibh0q/IvJGOarsvXioLCEiQI3oea9I0SeObTiYMZQYIxXnlhGGuXjP8S8fWus8Ib4r6ZZPlXaOD3raD0MZvUztQ127ScgfLGGOQOuK6HQvEYm0qWeScFoMYBXmUHt7EUur+E11K7MlswjR1yfr/hVu38GWttpSxRSSRyBw7y9WPsB2rRXRm2Tavf3ciC1srV3eZQUkI+XntUI8CaXdJFJITBM6gzRREEbu/NcvqerW6awsNzczPb2nyqqNgsfc1Q07xTd2Wreeju0Bc7YieAM1akS43PZLXTrXSrDyrWIRxqPlUc15F4i8WarJq86QTGGGNyqrtzuFew2l01zaJKAMsuQK4zWfAlneXcl3H5iF/maLPGfr2q5RbEmo7HH+GPEOtnWYoUuZJkc/MkhyB/hXtdvI00AY8MRkiuMh8O2OlSrLp1o0UKn597bmJ7nPoKXUfH2maWoWFzdy/8APOI4H1J7VlKyRpG7OtvHZI3YnG0HqcVw0Pj+0t9VW1maTGcM4GVB966qbUYdX8HS39iAwdF47pk4OfpXl998P9bj1o2yQGWN3ytwv3SPWueepfNY7zVdBsNTmh1NMAhgzEcZqxIqxeH4I+AwncsM8nOMGqN+k+leDyJTuMK7N/8AeHSsfS55LryLt33GS3Ebc8ZVuv5V5WOb9nJnXh/jRtoMj8KlC0yPn3xUmDnNfLM9bnHBeeKeF70gBOKkGelZtj5hUAxnFP6dqaCynpj+tOB9vzqGUpC5OPamk8UH2phJNCK5xOnFRSAZx2p7NiombJrSI+chZccg05XH401yMVFvwc1ra6HzDNWk8rSblu5Xb+dcJdJ5ikY/Cur8R3IXTI488ySfyrj5ZAWIr18BBxhc5q8tSgjFQbd/que49KFcrwwJXswPK0+4RZRwcMOhpibicEbXHX0NevFX1OCcixukK7g6Srjr0NCls5PFRhA5B2YYnAx3+ldbovgq4uVWe/LW0PUIf9Yw/pXRGDlsYSqKO5k6To9xrF2Ibf5VH+skPRB/jXptlZQabZx2tuCI09epPcmn2tvb2NuLe1iWKJeij+Z9TTiwrshTUEcdSq5i55NZ2tXPkQomcBssfoK0AQe9YXi2CdrGO8gG/wAkESoBzsPf8Kzr3cGkVQspq5zupXuGPoRishlLL1NMMzTEZ5FTDGQD19K4IxsepfmK3kyNkjAA7VLbw72y2di9cHkmo7648iEhcbj6dqj0qQ4ZWPLc1M7tXR6mBpR5k5GopCcKoUdsVIDVctTVlOcdB2rlcL6nvLTYtNJxgU+G4H4VXVd65zzQFCkip5EbXTRrxTnpu4/WpQ4yMnBrGWbYRzx/KrcdwSeMZ9KOQykrGpARnnhR1q4rZHAxgflWcjgAEDj3q0swYH5ucVdjGdyUzEHAP4Ux5y6hc7ccnB6mo5vnfCkA9hmoSCACeT3q0jOxd8V64mh6O8q4NzLmOFCep7n8K8VfczEsSSSST6mtzxLrEmtau8u4iCP5Ilz0Hr+NYuMnrXrHwKGquRW/4du/LnNo+0q/zIG6ZrFRamQtEySJw6ncD7isasFOLizpoT5J3PStMvSlz9mlYb5B5gXv9f0xjtXU2shAUdMn71eaSXwKWWoD7oG0Y6g+n516JYzGW3jaSPy5CoLIeqn3r5bMKHKlI+goVb6GxDk8cHnqKsgYJFVo2U42gDHoatxspX3rwJnapXQqrmjAB4qTB/CmkA9+e9Z3FceFzyBSgNjBGTTcHjB5qeJQU3EDOcCtKa5nYzk7EkKsVPJUY7Vo2QkKEEnjpmqMLeW6gqcd62U8tuFI6Zr18LST1OKvLoTwQ7l7Z65FWPJAWo4XCrt/Kpw6sOtexCMUvM82Tlcq3HyjIAJ7VVmj3ghhV51BJPaqkxYY28mp2d2Wnoc/q1p5tsygfNjj61zKbiM1292MAnpXKyxeXcOMcZyK9jL6u8DhxcdpFbDdqeA2Qe4qbAHanACvTZw9Tk/EHg231QNcWm22vOSdowsh9/Q+9ecLLc2Ly2zyNG6MVdR2Ne6fLjkj8a8C1C7a61e9mZvmkmc8fWuWrFHZh6jR6DpcvmWkL56oOa145ABkdxiub0CYtpVuevy4rfjDsDhdwxya89rU+uw87xTLkb4weeKsLJvOcnJ6+lZ6uxIUKeegHerltG0s0cAUF5DhV3YyfT2qeU7lNJXZYLYAYHjucdPanLJulOxWO3qBU11YT2MW+Ygqp2t2I/xqusjseSAFBwR0x607MUaikroa0rEMOASM5FQh0ALHO0DA9QfWnyEeWSnzYHzcH5frULgqjncCGT5uMAUWKckU5JckHjcOCR2qB2ycAgf1qQoi7H8zcpBzxz+NRtCHRgRjp1bpTJnNFGZ8nn8qzbh8Hpn1rQuAFzhg30rOlj3yFA2B3PpQcVRo9B0cFdFswB0iFXSGNLpqqdNtivQxA1bCgV3R2Pj6jvJlHDUmHq6VGaTaPSrRmUsvSgt3q3tWgoK0RDK3NIdwqzto2j0q0SVsmrEYJFL5dPUhRVAQyxk1karoUGrQ+XMCJB9yQDlf/rVullNRyTRRLulkVF9WOKTV9ATseT6v4fvdJc+bGWhJ+WZR8p/wNZDR5yOldh8QvEBIXRLYkZAkuD39VH9a4mG5JAWQZ96452UrI7Kd5RuxrgwN5kfLLzgV2+h3cd1bxyqoyRzXIPtwchiD6CtPwtcfZfNhlOF3ZXPFOnIKisejwzkL8vGOvapHuQVaMyKrtxz6VmxXqqk7sQBCN3PcYrzDUdXvL7UHuvNaNmfICnpWvMZO1jX1nwhfQXzSWqm4gc5Dg8qT61b8PeCZftK3OpoVWNsrD6n1NbngzVpb22KS4OwYJrrLjiJsDDEVqrb2Mmm+pytx42tLS5a0jbAjOGYdPpWzpPi/TNSmWFXPm9Bkda8p1zTm07VpYVU+W53IM569qNJsL281WCC2RxMxyCeMUryuPRI9J+IWrfY9CjjhCgzPtyR0HevIowVckDg8YzXtt34eXUdMihvY9xQh2BbbuPTrXNXXgjQYXG/UWiIJwqMHyOwqZLuwTbE+GBnkm1Gy3f6I8XzKTxuOa9KsiJtLhDkbgNhH04rmPD6W2nhY9OtZWQdTtIBHqSa0rnWrTT3Ef2qzRMZ/fzKCGPUYBJrnm0jeC7k2s2iXWk3FkfmEqEew9K4LRrK5sLFbe5XBErBPcetdFeeNdJEwjOrIWXgJa2zPz9Tis661WK4MWIr+Mu2Ue5iCBvXArzsWuak0zop6STNGMY9/XFWETcMmqUE4Le+MD2NXYmBXk8183OB2e0JURQeaesZ3cAkdqcqfKOaRVbdywAHasHDUftB2wlcsOP5U1lC//XqWRioHp6U0gHpyAecUpUmP2hEw/KoiOasRRGTcUJPPQ9hULKSeKnksNVSBh+dQtkDpVh1wMk496rOwXqeKqI/akEjCqxbj+lSynjdkYqrIwAJY4H0rohEr2hg+J7rEttEDwqlsfWuceQ4z696t67cedq8oH3YwEFUgpbA7V9Dh6fLTSOWrU5pMbknGPyNW7WC4vJ47eCNpJpDhEHJJotLK4vLiO3tY2lnfhUUfz9BXq3hzw3BoFuXYrLfSDEkuOAP7q+38676VPmOSpU5SloXhmHR0Esu2e+I+aQ8hPZf8a3cN3yasMFxTeK7opJWRwyberKxRs9KYyP6Ve+WmkjmqEikAR1FJuOcYz9e9XCBjpVd1HpUMpHn+t6R/ZV8WjXFtMS0Xse61iXDs/AIFer3Vnb6lZSWtwPlfow6q3YivNNRsJtPupLa4X94vcdGHZh7VyVIWPQw9XozJZDMoDNnb60sDeVOp98UkoIG707io4BPdzCK2geaQ/wAEaliTXPY9vDVVHVs1u5Hemn866Kx8D69dojz26WSNjLTtz/3yOa7Cx+GWkhVF5eXNw+MnbhB+VYuSW56Lx9KK3uebQtxg96bLKobqC3YA5NezW3w68MQgE2Ly+7yk1s2mh6TpjKbHTLWB88MsYLfmam6MJZtFfDE8OtfDmv6hte10i7kVhw3lkA/nWg3g3xVZReZPpF3sHXYAx/IHNfQqlo4QHkJYDqKekiAjDEgjrXSqSscEs7rt6JWPmXfJ0BORwwbgj2I7GnJO+3BbjpXr/wAR/C0F9pz6vaRLHfW67mKj/XJ3B9/Q148SFAZSGHX86xlDldj1cLjI4mnz2syxFMTyTyOee1WvODx4P3vWswS4AYYAFPNywweufSnymjmjzw9aTrTyO1CjmvRPhrAo5qXFNReamCjv0rNmsTX8N3XkXZt2wVf5kJH3WHpXolhMBgnkHqK8oRnRw6HDr9016Bo999ptI5QeT976968fMaHN7yPVwdW65TropcYq+khB6449KxI59yEbquIzgBicqeAc18zVo6npRkay3GeT+FPVgFyetZscgAHerMcmcZ5rklC2xqmXFOTUyHHBNU2bGMc+9SwuxBxyF5NOmmmKWxdRgDhR3qQTkfLuGPXHNUhMqgnGT79qcrlhnv6V1wrW0Ri6ae5swXe4AMT9a0IJF2cEYrm0Yg5BxjtViGd84yf8K76OKaepy1cOuhuCbeTimSAHOOtVIZCWwOholcBsZ+b1BrsVa61OOULMinXzFwTnFc/qMW1kcdBkGt6U44B471maggaNh19K68HX5aiZjWhzQaMenrTB1p2a+kvc8i2pT1m5ktdIu7iJ1Qxws24/Svn5M5DHqeSa9j+IF08HhidUOPMKxn3ya8czWFXc6KZ33hgiXSItxACyMCT0roUlygTPBHbvXM+Cj5thLGvJWbP5iuxj053QcE88c1wyWp9Nhan7uJHFMMod/LDBwOfpmtnw+0cOpxmWRIoihyz9OvT2rPi0aZsbFbGOhHetdNNuNqpHABGCGw6kkEfzqdjrnUi42NjxM64mBm2KoR1c87sdq5QS5VFlYKjd1A5X6V2DTzSHe1pEkaDaquw6e+aw30/fbmGS5t9u8uA0iZXnOAc9KdrmFCr7OPKzNTzmkMcAcyOuHP8As+mKrzxMzm3KyGfPAIwMAcmteS2s/MWWW4tOgDqLhQHx3JzmktdR0q0uPtCalYNO2QWknByPT2FFjd1+xzziRrKSbaRGrgFweM+4qpIm0kFD8oyGPT611Z17T0Mok1LS5EkbLIXGP0qk+t6bKjD+0bQk5XI7D0+go0Idd9jmJ+Y9xjYAdPSqRH70kZxj1remFg6hBqUbKpyF39Kzns4d7CGVZC3GFOeaLGU6ytqd/pgxpNoOv7patVDaLssoFxgCMDB+lTV2LY+YnuwxmjafWlHSlqzMZtopTQatEiUgxmg80lWiGFMPWnZrnfFHiQaPCLe2wbyRc5P/ACyHqferAPEXie30SNooyst4R90/dj9z/hXn58e6rBP5ltIhuAflndAzL/u56VzWoX73U75ctlslieWPqaigTHJ6mspz0sjWFNN6l6e6uL26lubqV5riVt8kjnJY+tCnNRAHFSKDtrkZ2IsIRjhmX6GnszrHlDkqdwOagXIq3asouE3YwflI9RRF2Ypao7LS5jdRRsSGWePYx9x0/rXMS6DdrqvlJbuYS+A5Hy/nW/ppi0+ARuQsQbcHkbB/Cp7vxBbbsxvcTkHjYNi/ma350c3K3sa3hvSV0qJpJ5YlU9BkA/lXQfa7Zh8izXGOvlISK81fxHcjP2a3t4G/vsPNb9eKoX+r6jfxhbvULqRV/gV9oP1A60e27DVNpHda5f2ifNNBYWzj+O4lG7Hsormv+Ei0pLppvtl3O4Aw1tb4z7ZY1Np3w7eWKOe5mjtzIgbaELOM+ua24PAOkJt86W5mYdfm2g0+Zsnlic5c+NxIAItIkkP9+8uy2f8AgKgCqtvrviTUSY9Nt44gTjNrbcj/AIEeleiWfhjRbJg0OnQl/wC9J85/WtdSUBVMKvoowKhlaHmkfgjxPqcam+vHWPrtnnLY/AVs6d8L9PiIN7ezTHOdsShAfx5Nduh9TmpVHOazZVyrYaFpGmRKtlYQxkHO5hubPrk1ynjmXGracpP8LfzFd0B8ted+OyR4gsG5wsR/nXLiF7jKjLUhsrgxP5U0m+XGemAQa6KBd0Bl3qOePeuZEgkjGEAP9a0bfcCg3ceh7V4dSKeprzm7C+0AllUE8ZPWrLFRyHBXqSeAPxrPt/KR8S8sOjE9Knnk8zS3UqTDM+Ch6NisFTTYe0FuruGGHzGcbezKcg0trdi5RXUlYyeeP6VQ8u2SBbZFURjomOBViJkUCMLhs8kHjFEoJLQamXVcInGUH94dqgM6rnIB+gpJbn/R2iQKxzjg8mufk1GWeWSO2t5BJH1Mo2jHt61mqLkPnNWe6VCdykL7dqzDeESsSF2Eccc0l1deXGhZS7M2NqDP1/CqMymQcHG09u9aQopasftGNnvXS6APMW0nPvUE0wddwOB25qC+cKNznCH5Svr9Kr3brbacTjGxD3rrhSTtYftDBaPzJnkyTuOaHeKBcs2T6Cs9rqWQfe2j0Wmrwe/PXNe3CFtyGz0H4fa/ZJNLp00McN1O2Yp+8n+wT29q9BJI4zXgAzGwKk4BBBBwR6V3mkfEJ4rZINVhMzoMC4VsFh/tD1rspvoctSLbuegk+9JkVhQ+LdLmAP71VboSBz+tbEFxDdJvglSRfVTmt0YNNEuaM0gOaKYgNRtUlMaoZaI+c1S1TTbfVLbZP8rJykoHKf4j2q9ioZ2ZXgQfxvz9BzWFR2i2a0k5SSRm6J4DsFjFzqubiQ8iEHagHv3JrstOSzsIxFZW0Nsp4xEgH5ms1r0LbEsfmx0+tUo9TCSkswwOa8yU5SPVjFJHTXT5XIPO09fWn2tySzDOBgEflXNXOvRiHhxlecVTTxBE7h/OGMYI6VjKLZrHY9FiuVA57frUVxcEgkHkc1x0fiSBhs8wH15p/wDwkkEHJcPjpmizsNJHWnVriSIhYnLqOQB1HqKdpt/evt8y3cKDjc/cVx5+IVtDxuAI6AVS1D4qIsJCIAxH3ia0lUlbS9w9lfSyOz8V+IIbDQ7ppmH+rKgZ6k8V4Oj7lweCB0zTda8R3eu3AEjN5O7cR61CjFiCD34z1rWlGTXNPc9HDwVKFkW1ywHHT0q0oBHCgY5INV4TjqfyqfhxknB7GtbF3ODIzQq04rg09V98V1s+SsKqY96mAGMGmqmDxUwXjIrNmiQirxWx4du/s90bcnEcvK57NWWFGRUqgq4ZMhgcj2NY1YKcXFm9KfJJM9Gt3yK0UZ3QAnOOwrC0m6F3bRyjBJGCPet63AP4181Wp2bTPXjPqTJkcHvVuE4bHUehpqpwAR8wqzFF09a4alNJmqmPTf8AMMDmpBb5bk47mrNvArcFscccdamEfqDmo9ktwdQrNAu3CjHcU2JGHPcmtHZkY7d6b5BL4A9+aHS1uifaEITL7WHFWQgVht/KpRCA2eMipBjptJrohTbdjGdQYemPXt0xTSWHBHA71I2NrO4AQdSen41jXviTSrIlXuTM/dIV3fr0rthQl1OZyvsaRkwSTjHT2qjdOWRvLVmOOcCuXvfG0soZbK1jgX/nrKd7fl0rFbU9U1RsCeab3ztQV6mHwzvoc85W3OqDZzkYPoacCM9aybSNrWARltzdWPvU/msOle/C/KkzyZW5m0cj8Tr1Us7OzGdzyFyOxUD/ABNeY9zmuk8d3RuPEbozBjDGF4PGetc0tZT1ZtDY6Dw54im0A3HlQpL5wHLdVI9q238d6hKMLczR/wC4qiuLj61YTB9655RTdztpV5xVkdNJ4j1G4B3aleEHqPMNVX1Kd8hru6P1kP8AjWeh+WngZ4zio5UdCxNTuWPP3AbmdserE00+Uwz5efrTADjqKcD3x1p2sJ15vdl3TtP/ALT1GGzgiQPIcZYcL7118Xw8IdvNvoQv8JSHJ/WqHgeyZ9QmvjnbCuxfdjXdCR80GUq8+5gR+ArRWBa+lK+ixKKtJ4K0offkuH/4GBWx5jClErd800jKVafcpweGtIhGBZq+O7nJq/b2Npa/6i2hj91UUzziKXzWrVJGEqknuy0eTSVW8w0oc96ozbLAOKXcKgDHtQXOaokloJqAytmm+a2cfpVIknpCDjIqfQrGXxBcTJbyqsMDBZJcbhu9B6mupPg7TUVFmkuJ2PrJtHvnHatLpbmbbeyOFupL0xSJpdk97eBcrGnRfdj/AErxTxBezGWYzu5uJHPmluue4r27xX40i0m0n07QFS0tYxtkuV+8x/2T/WvBmhn1m5ub98i3jb5nY5yx6D3JrOVZPY3hRktZGfDFn52/KrSip3jCjaO1RbcVi3c3SsPXrU3DAYqIDkYqVCeeOKl7GiHAAVIoIYECmhR2NWolHrUCJAzOMMzEe9MYFm4/WphgL9fWkwR2zQ2MjCgLk5xW94R0kanq6yyLm3tsO2ejHsKxGyR7elek6DZjSdIjiH+sceZI3qTVwV2Z1HZG8ckkkUYqi12RQtyT0rY5zQFOAz1qitwT1qRZ2qWUXQMVIpqiJTUqSHNZspGlGciuJ8ZWRuNYhdFyVjHHrzXZQkmmXUXmjkKceq5rCpHmVho4GKxcADBx9Kv/AGYxRI3PmEZxjNdF5O1jhSKQQp2TGfavPnhGyjFSMrEy7cMQQCR3pUS6TR4oriTfJvOW9q21jC/8s8j6kVMRC8Wxo5V9gFYf0qFhZJEu5xc1g15IrS4eVT8vatKS3miVGGcjqCOlbD2tru352t7xkfyNRSW8bEsl0isVxksf8KiVCb6Duc1FBNFP/ok7xrv3sCMkGnWMcy3Eq3U/mszDa/8AEB7+1bh087v3UoLDg7WB/niqq6KXuGu4WZ9y7TtXI4+maTpzas0HMU5la3ut0RXcvXHSqJcPK0ZAyTn6Voz6NcNMjFioH3s56VUnsHR2IGT2OetQqNh8xj3yq8hO3pzj3rF1yRk0ja2AznGBXSvaNuO8E464rk/Ej5kjh6AEnpXXh4Wkrlx1OfwaUE5p3ORn9KCMV6RViRcFcE8Gl5U4FMVvyqU/lWkZWJkipMJLbLRsQmc4HatbS/E1xZshycg8Op5qnjI2+vFZs8XkPlfu+npWyk1sZtHtGh+JYr+FFlkUkjAk9T6H0roN2OuK8CsNQltn3RPj1HY13+heLi2yCdhjoQe/0NaRmmYyp9Ud+DmkaoYZ1dQynKtyD61YyCtJkkY4rG8TXbafZ212vRJtrDPOCK2C2DWP4mtDqGgzxR/6yMiQD1x2rKa5lY1py5ZJmO/iRWiD7uGUcVlT6u8jZiY1kwxl0AHP17USMsKjaSx9hXIqKR3+1vsXJbyeRSGc4PtVQySqDhiB7mobjUpFhKICR79Ky2kaTl2JNVypG9KnKp1saJvypz5rn2X/ABpsmqysNu3I/wBo1nmkpNHXGhCO+pO93M38e36VDu5zyT65pOtTRwFjyCBSUbmyilsi7awMbb7QOmduKtx8HGPzFSafH5lncRYOQAwFSw20znKxOc+1Xaxpz30FViBz2qXJxnOCanj064Y48o5+vWr8Hh++m5WBj9FJp2Ic13OHm0y5t7RbmWErExwpbvVUIe9eveK9PF14dkWEZERDgDtjtXlBQj6+lEJ8yufPyhYaqn04qVRnjApoGASeKkUHAFUxIVR0qQYHSm7cD3qVF78fjUFo2PD919mvPJYkJL056NXeWxyoNeYAEcrww5BzXfaJfi8tEkz83RvY15OPo686O7DzuuU6SAA1eiwcY6VQtx0561qQRggE15EoNs3cyxGhyD6VZaPcN2ODUaNgbe9WosEFOWxzxWlOg5IzlUGpGMdz9aeECkdRn86y9Q8SabppZXm82YdY4Tk/iegrjdV8e3k+6O2K20Z6+Wct+LGuiGHitNxNyZ6BeXtnpiE3tzHCf7rcsfoo5rl9S8ewRgpY224jpJOf5KP615xdaszEvJJgk8sxyT/WmWtlqWqMPstqQn/PWXha76WFlLZWMp1KcN9TY1LxLe37H7RcOyjkAnCj8OlZtt9q1OfyrOJpiTgt0Rfqa27HwjbJiTUJGupO6D5UH+NdJBGkEQigRIox0RBgV6NHBxjucdTFt/CY9n4VhjAe+mNy4/gXhB/jWwsMaKFVQqjoAMCnnPrTec13wioqyOGcnJ6h5a+gqlqtxHYadPckfcXOBV3ca4j4gay9rpgskGHuG+9/sjrVN2RK3PMrq5a8u5bh/vSMWpijimhffpUg4rmZ0IkQcip05qEdPWp4xmoZrEtxDK8HpUvYcio4+PQGpADnnBPbiszVDgM44zxSqcH2pAOuDzSjk4PP1oGemeArUxaDI8i4M0xYH1GMV1aQJ2xWT4fiMOhWinGSgPFaYYjpV2MHLUn+zxkVE9uo6UqykHmh5NwqrENlZkANOjVTTXJpqkg1SJZY8tPWlEa1DlsdaUM3rTJZMI1pxjFV8tmnb2qhEhgU1xfiXxABLJpmnuCygi4mU/dH91ff1NJ4s8VT2s76Vpz7ZVUefMDyuf4B7+prmre2KWiqBl52CZ+vWtILuSe+fC+w+xeCLI7Ar3BaVvbJ4/SpfGepPaaHIIZRFJct5asR/COtaegtDaeHbeOL7kMe1fwFcN8UL5bLSbSV+BHC0nsSamptcumveR4v4qvpb6/i0m0BZi4Ur6sa6fUPDP2Xw5BZW7DdagyPn/lo2PmP1rP+HekvdXNxr10u5slIC3949T+Ars9UlW30u7lz92FuT3rinOzsj0IQunJnjkwBPGaiqdlOPeo8YrYyaGpx1qZajUYqdEz2pCuSRKSRjFXUAxyKhiWp+3FQAMeeKTPalJ9BSMcAg8e9JgMWaOO5hVxkO4A+nevXoLcfZox6KBXh1rOt1rsTE4jVtq17Zo919r05ZAeQ20/hXRBWRhUd2StaDJpwtABU5OaXNUzMiFuBUiwClBpQ2akocsSipVQCocmpFJqGMuRkAYzUu5aohiDTgx9azYy0UjbnvSCFDUCufWn7yO9QyiwIEpxt1xVYOx704SnpmpsMr3VuorNaD5q05XJqswFKwDIofXmuH+InhvyrRdc07fBLG2LkQkruB6Nx6V3SEg1JIkdxC8Ey74pFKOvqD1qo6MDwODXNZh/1erXqf9tjWhF4t8QoMf2rK4/21U5/SqOuaTJomtXOnSA7Y2zEx/iQ9DVWM9qpxRSN8+MNZI2vJbyfWAZrJvbybUJxLOUDgYGwYFREBe5oHPGMVKikWiIqNxoCjr2qQ/d55xSYzzVIGRYzTgT0NOwOlJg54Jq0Aox07UyVQ64p3Q4pHBxnNWmQZjo8D7h90GtGL54RKvNLbtGl0hmXdCx2yD/ZPWpGhGk6vNp0jboHP7t/UHoafNfYnltqdz4O1WZkjjlYtGW2H8a7/bjNeVeHS9uzjgFJAQTXYP4iuFXPko474PNdCTkrmM1qdAy5NM8s+n51hr4kMseYoxu75PSnrrsuSGgX8Dil7OT2JMPWdBaxkaWIbreQkjj7p9DXNXCFM8DjtXoF7fLfabcwgFHaM4xzzXm016jr+++/3I45rGpC250U5XRVuJlCkbTmqcbbiRRLKrsQCTTYlZDuGRWdjuoVlFlkIx7GpobN5SDlQp7k1B8z8lm+tdF4b8LT6sxlMqwx7SUZxnOPapbtqztliYpFe2sLNMGScH6HNaUX9lxjgSyHttiz+proE8DajGoWOS2cexxirlv4GvGwZZ4I88EjJIqPaGft4vcw49StoZM22mTOpHAklC4/IVKur3zgiDT7GLB6vukP6muwg8DWiRAzXkjH0UYrW0rw9o9nKQ1skpIzmXk1m6j7jdeNtInnL6l4kcYi1CCAf9MrdVIrOuo/E91nzNcndT1HmkD8hXuUen6Hwrada8d9lPk0zQvKZV0+AH2WnzPuT9Yj/IcpNCpRwyEo3ymvJde00adqs0AyVzlDjtXrjP5gzuXaOeK43xnYmWKO6BBKfKwxzipouzsclSPU4LaAenXuaeBgEGnhBgA/rS4roMOoAYNSIoA5FJgYqRQc8YwaCkL0GO1aXh7UPseoiB2xHPwCezdqzmHGcYplvaHUNUsrMZ/ezLuKnBCjkmonTVSLiyo1PZvmPWLabO3P5VtW5LKAa5eS9i0xnaUO+T8qjq349qxr7WNR1H93HG4iJ4iiBx+J7/jXlrCtSs1qdTqJq6Z2V94osbEFYj9olHUI2FH1b/CuR1bxZd3ymMzbIucxx/Kv4+tZ40TV7thuhEKnvK3T8K1bLwjZxkNeSPcuOg+6o/xrrp4GT3MZYiENjlXvJLlxFCjyseixjJrQtfDWpXb5unW1Q9Rnc/5dq7NLeC1TZbwpEp6hBjNOAHpXbDDwgck8TKRl2HhzTbLa4g82Uf8ALSXk/lWv7dh2oC+lLiugwbb3EpwOKTFLVIkCc0ZowKMCqRLCvK/iVeJNrMVsjZ+zqQy46E16hPMttby3DdIkLnPtXgepXkl/qU9zKctI5J5zSm9CoLUgUcCnlfxoiTfx6V0tvp1qsC5Acsucg1zTmkdEINnPLVpMYrRm0+EK2w/SqQQqcdxwanmui0rE0YG05Ip3pTUX6VLyBjGaRaEwehqSBDNIEyBnuahxmtDSIDc6jaw4yryqp/PNFhSeh6/ZRiHT7aIDG2NRj04qfNJkdhRmtbHNcdRSZpaYEL00U9hzTB1pkskoFFANNCHA1leItYGh6S9yGHnsfLgU93P+HWtUcnFeZeMtWXU9aFvGwa3tBtUju5+8f6VSQGNGkkm+R2LSF9zMe57mtGzufMvbVVyAjZIHUVVgPlx47Vv+CdL/ALU8TW0GzG997H0ReT/StbCeiPcrCJrTw9a2zMQyw4JJz8x5rgfjD5lz8P8AT7mPJQyLFIOuOa9FupMOcfdX0rkL20HiPwjrvh4jFzbt50A/vc7hj8v1qJ7BBtM57QbAWGgWVtgbli3HHq3NUPGMnk6BLHjHmMqAe1bsEgMEeBg7Bx6cCuf8XqX0gYBOJck15UdZHrtaHm0q9TUAXmr0kOTjpUfk4rsOWRAE56VPGtJtx1qRcCmQSoAKcMVFvApDKBWbKRMTx2rM1O78u3MaH534HsKknutoJzxWFJK1xOXPToKqEb6kzlZFrTgReQ47GvcPDUMkeiRGRvvMWUYxgdvrXjug2rT30ZUdD1r3W1i8i1ihJyUQLkVuYMkxRinHpTcGhkhigdaMGlAqRi4pwOKaMZp2BSZQ8U4HFMFLUWAk/CnDpTAeaXNZtFDs0oIpmaM0mgQS+tVXNWWOVqu+OaXKO41DzU4PFVlPNT7vl6U+UDzz4sCEDR5jtExEiE99vGM/jXn6Hvjiug+KM7yeJDG33Y41VR9ea5aym81NrHDKMfUVpy+7cIy1sXcg9fypNvFC8GpMZ/8ArVBqhoxkZ9KNtBHNA+YYoGIRSdOtP5A4phyRyOPWqQDT0zSE8UpIwaZkYFWSRyrnj1q9rf8Apuj6fqIP7xQYJT7r0/SqTEYzW5pUJ/st4J4sq8okTPtTSbegaWaZ6JeaJb2Hw58NXQ2m5fLSsozndzzWLPbhx5kZKk9fSpDfTy6Ha2khyschIOeB7UsR6gng12Utb3OW1kjLbcHLYxIOo9au28vmx5HDDr7ii6gwdynkdKqW7+TcYB4YZA9KL2Zdr6mkr7Wyf/1Vy3ifThFMt7Go2THDj0f/AOvXTAjcQajv7f7Zpk9uBksmV/3h0pVfeiKPuyPPsfSgAlunHrTwpzjGKsWqqkyvIMqOcetcJ07HQaL4We6j+0XZKRgZVO59PwrZF7/ZmogN8qMOAvp3rLg12RUCckYxVa8na8ILDGOntWEk5bm8Wo6nd2fiMMoDMM4q3/wkkUYB34PU15smUGc8euabJfMjhQhYn1Pap9iaxlzdD0KXxcij7+fx7VWHi4Z6kDtXASXsq/dRB+tNE0zncX/AUeyRokz0638YQ42mStKHxTCy8yD868feWaNs+YSp9ulAuLlCMyvt9fSj2XmF+5//2Q==;" parent="1" vertex="1">
                    <mxGeometry x="500" y="40" width="257.5" height="206" as="geometry"/>
                </mxCell>
                <mxCell id="7" value="&lt;font style=&quot;font-size: 18px;&quot;&gt;Bubble Tea Shop, In JS&lt;/font&gt;" style="text;strokeColor=none;align=center;fillColor=none;html=1;verticalAlign=middle;whiteSpace=wrap;rounded=0;" parent="1" vertex="1">
                    <mxGeometry x="220" y="20" width="260" height="30" as="geometry"/>
                </mxCell>
                <mxCell id="9" value="" style="ellipse;whiteSpace=wrap;html=1;aspect=fixed;gradientColor=none;fillColor=none;" vertex="1" parent="1">
                    <mxGeometry x="20" y="70" width="10" height="10" as="geometry"/>
                </mxCell>
                <mxCell id="10" value="Regular $5.00" style="text;strokeColor=none;align=center;fillColor=none;html=1;verticalAlign=middle;whiteSpace=wrap;rounded=0;fontSize=15;" vertex="1" parent="1">
                    <mxGeometry x="40" y="60" width="100" height="30" as="geometry"/>
                </mxCell>
                <mxCell id="11" value="&lt;font style=&quot;font-size: 14px;&quot;&gt;Select Your Size.&lt;/font&gt;" style="text;strokeColor=none;align=center;fillColor=none;html=1;verticalAlign=middle;whiteSpace=wrap;rounded=0;" vertex="1" parent="1">
                    <mxGeometry x="-15" y="40" width="170" height="30" as="geometry"/>
                </mxCell>
                <mxCell id="14" value="Large $7.00" style="text;strokeColor=none;align=center;fillColor=none;html=1;verticalAlign=middle;whiteSpace=wrap;rounded=0;fontSize=15;" vertex="1" parent="1">
                    <mxGeometry x="30" y="90" width="110" height="30" as="geometry"/>
                </mxCell>
                <mxCell id="15" value="&lt;span style=&quot;font-size: 14px;&quot;&gt;Choose amount of toppings.&lt;/span&gt;" style="text;strokeColor=none;align=center;fillColor=none;html=1;verticalAlign=middle;whiteSpace=wrap;rounded=0;" vertex="1" parent="1">
                    <mxGeometry x="-30" y="133" width="260" height="20" as="geometry"/>
                </mxCell>
                <mxCell id="17" value="" style="ellipse;whiteSpace=wrap;html=1;aspect=fixed;gradientColor=none;fillColor=none;" vertex="1" parent="1">
                    <mxGeometry x="20" y="170" width="10" height="10" as="geometry"/>
                </mxCell>
                <mxCell id="20" value="" style="edgeStyle=none;html=1;" edge="1" parent="1" source="18" target="15">
                    <mxGeometry relative="1" as="geometry"/>
                </mxCell>
                <mxCell id="23" value="" style="edgeStyle=none;html=1;" edge="1" parent="1" source="18" target="15">
                    <mxGeometry relative="1" as="geometry"/>
                </mxCell>
                <mxCell id="18" value="1 topping $0.50&amp;nbsp;" style="text;strokeColor=none;align=center;fillColor=none;html=1;verticalAlign=middle;whiteSpace=wrap;rounded=0;fontSize=15;" vertex="1" parent="1">
                    <mxGeometry x="40" y="160" width="110" height="30" as="geometry"/>
                </mxCell>
                <mxCell id="24" value="" style="ellipse;whiteSpace=wrap;html=1;aspect=fixed;gradientColor=none;fillColor=none;" vertex="1" parent="1">
                    <mxGeometry x="20" y="100" width="10" height="10" as="geometry"/>
                </mxCell>
                <mxCell id="27" value="" style="ellipse;whiteSpace=wrap;html=1;aspect=fixed;gradientColor=none;fillColor=none;" vertex="1" parent="1">
                    <mxGeometry x="20" y="200" width="10" height="10" as="geometry"/>
                </mxCell>
                <mxCell id="28" value="2 toppings $1.00" style="text;strokeColor=none;align=center;fillColor=none;html=1;verticalAlign=middle;whiteSpace=wrap;rounded=0;fontSize=15;" vertex="1" parent="1">
                    <mxGeometry x="20" y="190" width="150" height="30" as="geometry"/>
                </mxCell>
                <mxCell id="29" value="3 toppings $1.50" style="text;strokeColor=none;align=center;fillColor=none;html=1;verticalAlign=middle;whiteSpace=wrap;rounded=0;fontSize=15;" vertex="1" parent="1">
                    <mxGeometry x="30" y="226" width="130" height="30" as="geometry"/>
                </mxCell>
                <mxCell id="31" value="" style="ellipse;whiteSpace=wrap;html=1;aspect=fixed;gradientColor=none;fillColor=none;" vertex="1" parent="1">
                    <mxGeometry x="20" y="236" width="10" height="10" as="geometry"/>
                </mxCell>
                <mxCell id="34" value="&lt;font style=&quot;font-size: 17px;&quot;&gt;Calculate&lt;/font&gt;" style="rounded=1;whiteSpace=wrap;html=1;" vertex="1" parent="1">
                    <mxGeometry x="20" y="280" width="110" height="40" as="geometry"/>
                </mxCell>
            </root>
        </mxGraphModel>
    </diagram>
</mxfile>